<?xml version="1.0" encoding="UTF-8" standalone="no"?>
<!-- Created with Inkscape (http://www.inkscape.org/) -->

<svg
   width="1024"
   height="512"
   viewBox="0 0 1024 512"
   version="1.1"
   id="svg1"
   inkscape:version="1.4.3 (0d15f75042, 2025-12-25)"
   sodipodi:docname="midnight_long.svg"
   inkscape:export-filename="midnight_long.png"
   inkscape:export-xdpi="96"
   inkscape:export-ydpi="96"
   xmlns:inkscape="http://www.inkscape.org/namespaces/inkscape"
   xmlns:sodipodi="http://sodipodi.sourceforge.net/DTD/sodipodi-0.dtd"
   xmlns="http://www.w3.org/2000/svg"
   xmlns:svg="http://www.w3.org/2000/svg">
  <sodipodi:namedview
     id="namedview1"
     pagecolor="#ffffff"
     bordercolor="#000000"
     borderopacity="0.25"
     inkscape:showpageshadow="2"
     inkscape:pageopacity="0.0"
     inkscape:pagecheckerboard="0"
     inkscape:deskcolor="#d1d1d1"
     inkscape:document-units="px"
     inkscape:zoom="0.20434571"
     inkscape:cx="-137.0227"
     inkscape:cy="256.91755"
     inkscape:window-width="1920"
     inkscape:window-height="1052"
     inkscape:window-x="0"
     inkscape:window-y="0"
     inkscape:window-maximized="1"
     inkscape:current-layer="layer1" />
  <defs
     id="defs1">
    <rect
       x="420.43199"
       y="145.33452"
       width="803.66527"
       height="328.73283"
       id="rect151" />
  </defs>
  <g
     inkscape:label="图层 1"
     inkscape:groupmode="layer"
     id="layer1">
    <g
       id="g1"
       transform="translate(-20.798088,1.2234169)"
       style="fill:#ffffff;fill-opacity:1">
      <path
         style="fill:#ffffff;fill-opacity:1;stroke-width:4.152"
         id="path30"
         d="m 462.73232,202.72946 c -1.43618,2.56165 -2.72009,5.18294 -3.75422,7.9333 -1.42513,3.67314 -2.36407,7.50406 -3.36503,11.30718 -1.31072,5.0937 -2.52934,10.20881 -3.77181,15.31903 -1.3432,5.48807 -2.46196,11.02769 -3.74607,16.52937 -1.05276,5.62545 -2.26882,11.21379 -2.89102,16.90728 -0.74489,6.39221 -1.2835,12.82326 -1.1481,19.26165 0.091,1.72098 -0.37895,5.93172 1.12692,7.21887 1.52566,1.30406 5.38441,2.09004 6.70009,2.47956 -0.2356,-0.86424 -0.47119,-1.72849 -0.70678,-2.59273 0,0 -0.40192,-0.21015 -0.40192,-0.21015 v 0 c -0.23631,0.61765 -0.47263,1.2353 -0.70895,1.85296 0.24286,0.18621 4.81359,4.21866 6.71859,4.55772 1.499,0.26679 1.35852,-5.09835 1.49243,-5.80906 0.70129,-6.2108 0.99993,-12.47174 2.08285,-18.6396 0.81672,-5.60441 1.88717,-11.16567 2.95388,-16.72721 1.17798,-5.5292 2.33919,-11.06286 3.65509,-16.56126 1.16325,-5.1244 2.36547,-10.241 3.68766,-15.32658 0.98337,-3.79659 1.78457,-7.64737 3.04214,-11.36678 0.84943,-2.71862 1.99551,-5.33189 3.43104,-7.79571 z" />
      <path
         style="fill:#ffffff;fill-opacity:1;stroke-width:4.152"
         id="path31"
         d="m 464.19474,207.13986 c 2.13039,3.92463 3.42147,8.21571 4.87243,12.41829 2.509,7.22802 4.90554,14.48284 6.93301,21.86133 1.98286,7.04562 3.23489,14.27475 4.05693,21.5407 0.32317,4.05954 0.7778,8.10582 1.07603,12.16745 0.0972,2.02509 0.13155,4.05301 0.13815,6.08023 0.005,1.65885 -0.0633,3.31694 -0.081,4.97558 -0.0403,0.78076 -0.0471,1.56087 -0.054,2.34223 -0.0223,0.26042 -0.007,0.47471 0.14776,0.67796 20.4819,10.77346 14.52695,13.31481 16.69438,5.40811 0.91203,-3.05623 1.51734,-6.18985 2.33337,-9.27049 1.48197,-7.42944 2.74205,-14.88824 4.49785,-22.26104 2.77521,-10.33044 5.31986,-20.71141 7.59301,-31.16313 1.02869,-4.83321 1.86945,-9.7363 3.43864,-14.43183 0.47045,-1.05634 0.89613,-2.32372 1.86042,-3.05176 -0.0531,0.0776 0.1152,-0.10065 0.1359,-0.0562 0.0344,0.0736 -0.0502,0.15603 -0.0918,0.2259 -0.0827,0.13905 -0.11865,0.48739 -0.26032,0.40944 -4.8779,-2.68314 -9.59609,-5.64687 -14.39414,-8.47032 0.77813,2.17138 1.18314,4.45122 1.60176,6.71562 1.1214,5.66016 2.09171,11.34402 2.95451,17.04877 0.96397,7.34954 1.89594,14.70569 2.56134,22.08899 0.51157,5.28459 1.05076,10.56321 1.6582,15.83746 0.27878,2.92794 0.70028,5.84843 1.36502,8.71445 0.40525,1.98243 0.88513,3.94788 1.32904,5.92149 0.35538,1.01121 0.3455,2.15859 0.7886,3.13249 0.59328,0.94353 1.66776,1.35669 2.62716,1.8392 16.49104,8.16778 6.52762,4.02148 4.51207,-0.006 -0.14745,-0.2946 -0.13215,-0.64547 -0.1983,-0.96819 0,0 -0.40527,-0.20363 -0.40527,-0.20363 v 0 c 0.30833,1.51572 0.21849,1.17785 -0.94675,1.87263 -3.59768,2.14514 2.41344,3.10655 8.0544,5.1908 0.78505,0.35095 1.76565,1.12312 2.61228,0.68206 0.47598,-0.86127 0.0273,-2.152 -0.0415,-3.06576 -0.53729,-2.007 -1.13174,-3.99078 -1.51892,-6.03253 -0.81118,-2.87174 -1.41126,-5.79501 -1.81965,-8.75373 -0.86814,-5.37818 -1.76479,-10.74854 -2.39788,-16.16241 -0.89997,-7.46282 -1.93668,-14.90835 -2.95223,-22.35611 -0.8527,-5.74182 -1.87042,-11.44545 -3.04348,-17.13129 -0.37311,-2.25649 -0.59843,-4.68091 -1.41504,-6.80508 -4.57097,-2.87368 -12.23259,-14.26072 -15.24716,-8.20468 -0.50505,1.26726 -1.05828,2.51799 -1.4251,3.83581 -1.05234,4.99337 -1.46516,10.10004 -2.34789,15.12485 -1.86527,10.54035 -4.27212,20.97415 -7.31465,31.24054 -1.94997,7.13057 -3.79588,14.30367 -6.15024,21.31358 -0.90654,2.96808 -1.92411,5.89626 -3.2244,8.71695 -3.10866,8.06388 -3.61768,2.53519 15.06633,11.69431 0.18459,-0.1053 0.16296,-0.27412 0.14805,-0.52101 -0.006,-0.79746 -0.0105,-1.59385 -0.0451,-2.39092 -0.009,-1.68887 -0.0612,-3.37727 -0.0656,-5.06616 -0.0168,-2.12037 -0.0499,-4.24245 -0.36229,-6.34524 -0.49347,-4.24902 -1.39919,-8.43419 -1.94442,-12.67626 -1.17398,-7.38897 -2.42508,-14.79119 -4.53284,-21.98142 -2.04244,-7.44882 -4.57683,-14.71988 -7.06693,-22.02741 -1.52649,-4.33632 -2.74632,-8.82261 -5.08544,-12.81728 z" />
      <path
         style="fill:#ffffff;fill-opacity:1;stroke-width:4.152"
         id="path32"
         d="m 535.33628,211.04068 c 0.82039,1.31354 1.73502,2.55041 2.49253,3.90579 0.3844,0.72696 0.63838,1.29494 1.33586,1.74383 0.63422,0.3466 2.43029,1.33536 2.91033,1.55799 1.32642,0.61512 2.53662,0.74456 2.82258,2.35452 0,0 0.38181,0.24478 0.38181,0.24478 v 0 c 2.20329,0.28831 0.16833,-0.10515 2.72943,0.9089 1.60863,0.6369 3.27198,1.11673 4.81553,1.92861 0.17056,0.0378 0.3375,0.12675 0.51171,0.1134 0.32224,-0.0246 -0.0817,-1.59929 -0.17202,-1.67079 -0.9735,-1.49255 -1.98059,-2.97314 -3.23747,-4.24535 z" />
      <path
         style="fill:#ffffff;fill-opacity:1;stroke-width:4.152"
         id="path33"
         d="m 539.89387,237.83649 c 1.53398,2.5577 1.87995,5.45147 2.18012,8.35968 0.55,5.97303 1.11048,11.94344 1.97757,17.8798 0.90407,5.23706 1.70453,10.50079 2.93717,15.67375 0.37207,0.99955 0.50757,2.59683 1.37719,3.37302 1.53581,1.3708 3.52664,2.09799 5.15826,3.34186 0.66675,0.72069 0.85383,0.70829 0.2154,0.5196 0,0 0.36431,0.27017 0.36431,0.27017 v 0 c 1.14931,0.53353 0.44259,0.1933 2.1019,1.0578 1.66232,0.70615 4.64971,2.07552 6.43946,2.0226 0.68104,-0.0201 0.27411,-2.52858 0.25266,-2.59577 -0.92386,-5.2849 -2.6261,-10.42174 -3.29486,-15.76312 -0.87809,-5.91479 -1.56228,-11.85132 -2.02836,-17.81339 -0.22165,-3.0765 -0.45709,-6.15028 -2.04732,-8.87764 z" />
      <path
         style="fill:#ffffff;fill-opacity:1;stroke-width:4.152"
         id="path34"
         d="m 605.32424,248.79504 c -0.25383,-1.14458 -0.22522,-2.31758 -0.31038,-3.47929 -0.0324,-0.1302 -0.0459,-0.58932 -0.20514,-0.67862 -4.72521,-2.64841 -9.50662,-5.19598 -14.22297,-7.86015 -0.1083,-0.0612 -0.33096,-0.361 -0.22254,-0.29985 4.61109,2.60056 9.17202,5.28909 13.75801,7.93364 -11.23794,-7.66059 -9.72463,-8.22968 -17.19726,-8.52336 -2.04676,-0.28871 -3.73129,0.0844 -5.5299,1.07454 -3.16162,1.84101 -5.46733,4.64047 -7.4435,7.65673 -2.57816,4.13531 -3.82249,8.76203 -4.65874,13.50831 -0.74454,4.54574 -0.78933,9.12587 -0.041,13.66466 0.57047,2.30217 1.43574,5.05239 3.64305,6.34941 5.28827,3.10734 10.64682,6.09352 15.97023,9.14028 2.18067,0.61647 4.43963,-0.005 6.5615,-0.58544 2.42434,-0.71214 4.276,-2.23911 5.97318,-4.05609 2.34807,-2.23791 4.19593,-4.90213 5.84634,-7.67622 1.92288,-3.67368 3.54075,-7.5103 4.93552,-11.41389 1.05036,-2.71159 1.67271,-5.51101 2.26883,-8.34342 0.56004,-2.41774 0.82141,-4.88398 1.33017,-7.31059 0.49311,-2.38398 0.66657,-4.80668 0.73395,-7.23459 0.0357,-2.85374 0.0485,-5.70758 0.0345,-8.56151 0.12945,-2.9587 -0.20426,-5.8999 -0.49815,-8.83807 -0.15657,-2.60999 -0.33665,-5.20151 -0.74301,-7.78554 -0.35772,-2.80077 -1.09293,-5.53347 -1.64712,-8.29827 -0.29982,-2.00793 -0.60072,-3.9963 -1.06847,-5.9724 -0.20376,-1.335 -0.66352,-2.60255 -1.04592,-3.89135 -0.0734,-0.23175 -0.1485,-0.46537 -0.14685,-0.70461 -17.03247,-9.22375 -15.70512,-11.9571 -15.67788,-1.99359 0.0527,4.81454 -0.0603,9.62765 -0.12765,14.44128 0.0399,4.28465 0.6873,8.52606 1.36698,12.74621 0.7101,3.56793 1.29453,7.16029 2.09277,10.7101 0.77139,2.831 1.11569,5.74545 1.58511,8.63465 0.60975,2.81887 1.02245,5.6748 1.66713,8.48554 0.43737,2.20527 0.75404,4.42685 1.19672,6.63185 0.23872,2.10402 0.66169,4.1746 1.03017,6.25783 0.30547,1.5839 0.33051,3.19107 0.36527,4.79619 -0.16943,0.97074 0.24474,1.76373 0.53494,2.64428 0.31311,0.91723 0.36768,1.90108 0.38244,2.86317 0.073,1.10071 0.37341,2.17521 0.63433,3.24466 0.20103,0.75906 0.6177,1.18133 1.24459,1.63044 1.8691,1.25613 4.08863,1.94222 5.93008,3.23832 0.50379,0.35459 0.86477,0.87767 1.29714,1.31651 -0.13875,0.18865 -0.27744,0.37731 -0.41616,0.56596 0,0 0.39076,0.23024 0.39076,0.23024 v 0 c 0.1389,-0.18888 0.2777,-0.37775 0.41654,-0.56663 2.76532,0.86693 5.31151,2.17184 7.97184,3.28238 0.86229,0.19816 0.99814,-0.0827 0.91138,-0.92595 -0.32421,-0.9573 -0.57852,-1.93319 -0.87817,-2.89677 -0.0205,-1.06655 0.0543,-2.1362 -0.10905,-3.19536 -0.1413,-0.54924 -0.243,-1.08954 -0.5709,-1.56797 -0.0609,-0.0888 -0.18966,-0.1314 -0.22246,-0.23388 -0.0541,-0.16905 -0.0152,-0.35466 -0.0227,-0.53199 -0.0552,-1.68879 -0.20445,-3.37915 -0.39418,-5.05734 -0.34002,-2.12367 -0.94114,-4.19041 -1.13222,-6.3375 -0.38242,-2.25349 -0.97183,-4.46397 -1.27224,-6.73525 -0.61675,-2.81582 -1.2558,-5.62545 -1.81639,-8.45583 -0.47729,-2.98578 -0.89907,-5.99687 -1.79421,-8.89341 -1.02918,-3.5976 -1.75641,-7.27323 -2.69988,-10.89434 -0.82839,-4.18506 -1.61073,-8.38195 -1.76189,-12.65892 -0.065,-4.85634 -0.17442,-9.71223 -0.1179,-14.56939 0.0362,-10.46253 0.92828,-5.12022 -15.69991,-13.72482 0.18403,0.18781 0.30117,0.45408 0.40863,0.70522 0.5401,1.22436 1.08672,2.49095 1.2996,3.81126 0.42603,2.02076 0.96858,4.0083 1.27158,6.05666 0.59674,2.68645 1.25811,5.36524 1.49139,8.11506 0.31752,2.58264 0.73762,5.13901 0.79609,7.7493 0.27963,2.91487 0.77532,5.81356 0.6218,8.754 -0.012,2.82861 0.0183,5.65831 -0.078,8.48574 -0.0961,2.3508 -0.20241,4.71052 -0.65243,7.02609 -0.4695,2.44642 -0.67831,4.92492 -1.1986,7.3632 -0.60276,2.78527 -1.17483,5.56596 -2.04333,8.2873 -1.24406,3.84714 -2.61365,7.70778 -4.71702,11.17902 -1.74036,2.59871 -3.59852,5.17098 -5.90207,7.30427 -1.68825,1.59595 -3.52251,2.79643 -5.84568,3.2382 -2.09223,0.41625 -4.24168,0.68515 -6.21412,-0.3291 4.64425,2.71605 9.29256,5.4252 13.93276,8.14816 0.35081,0.20586 -0.72874,-0.36693 -1.06435,-0.59673 -1.71593,-1.17489 -2.67227,-2.9089 -3.2206,-4.88035 -1.02034,-4.3924 -1.06047,-8.90138 -0.44025,-13.36518 0.69894,-4.58831 1.86344,-9.06861 4.25059,-13.10146 1.82535,-2.84362 3.91419,-5.5198 7.01729,-7.04857 1.65043,-0.636 3.2932,-0.72189 5.0519,-0.61778 0.41811,0.0219 1.03074,0.0357 1.45125,0.12405 0.38553,0.081 0.64034,0.24933 0.9483,0.46794 -4.57984,-2.67073 -9.1597,-5.34146 -13.73956,-8.0122 4.73467,2.75349 9.43801,5.56156 14.20399,8.26048 0.1065,0.0603 0.47246,0.053 0.36699,-0.009 -4.46334,-2.62632 -9.00721,-5.11359 -13.48734,-7.71118 -0.3979,-0.23072 1.15868,0.26419 0.86289,0.23199 0.98873,0.55598 0.89748,2.61135 1.31828,3.56646 z" />
      <path
         style="fill:#ffffff;fill-opacity:1;stroke-width:4.152"
         id="path36"
         d="m 683.20143,204.75201 c 0.29631,2.74177 0.56772,5.49292 0.86648,8.23948 0.24562,4.13616 0.66333,8.25849 0.95283,12.39146 0.32028,5.14812 0.72279,10.29357 1.15996,15.43349 0.56594,8.53674 1.1003,17.07432 1.71484,25.60827 0.22935,3.58738 0.51882,7.17619 1.01055,10.73862 0.16396,1.18777 0.44478,3.32077 0.98046,4.48395 0.27943,0.60678 0.73771,1.11393 1.10658,1.67091 2.73762,3.34713 1.65567,2.31331 9.71586,5.25022 0.53404,0.1946 -0.72528,-0.88236 -1.00706,-1.37598 -0.27241,-0.47727 -0.72042,-2.02678 -0.91893,-2.51667 -0.23572,-0.5817 -0.51807,-1.14342 -0.7771,-1.71513 -0.4578,-1.96344 -0.29444,-0.99978 -0.5099,-2.88756 0,0 -0.40383,-0.20646 -0.40383,-0.20646 v 0 c 0.20526,1.79079 0.20397,0.91376 0.0285,2.63099 -0.15154,0.17283 -1.71193,2.31822 -1.80681,2.3593 -0.34984,0.15155 -1.45918,-0.13815 -1.14145,0.0726 8.07973,5.35839 5.67714,6.24282 9.22248,4.67759 0.24486,-0.23628 0.62245,-0.38756 0.73461,-0.70881 0.28267,-0.80958 -0.0809,-3.47517 -0.1413,-4.03214 -0.39035,-3.5922 -0.92546,-7.16883 -1.18176,-10.77537 -0.84011,-8.4912 -1.13471,-16.99591 -1.56996,-25.51392 -0.30705,-5.15431 -0.67719,-10.29627 -1.1591,-15.43608 -0.33292,-4.22853 -0.906,-8.43397 -1.31469,-12.65476 -0.41422,-2.87408 -0.89482,-5.73717 -1.37371,-8.59988 z" />
      <path
         style="fill:#ffffff;fill-opacity:1;stroke-width:4.152"
         id="path37"
         d="m 685.01543,206.50121 c 3.87375,2.36186 6.76848,5.98008 9.67138,9.3914 7.05471,8.87033 13.68892,18.06601 20.18542,27.34993 4.8638,7.26881 9.70229,14.54907 14.78724,21.66537 1.73977,2.42766 3.42641,4.89993 5.25558,7.26246 1.32316,1.34287 0.60234,1.28394 2.93815,-0.015 3.01703,1.85069 6.03407,3.70139 9.05109,5.55207 -0.78363,-0.49615 -1.60355,-0.93916 -2.35089,-1.48846 -0.82329,-0.60515 -1.56714,-1.31155 -2.35071,-1.96731 0,0 -0.41177,-0.19013 -0.41177,-0.19013 v 0 c -0.15915,0.22929 -0.22036,0.57924 -0.47746,0.68787 -0.34203,0.14445 -0.74255,-0.0105 -1.11381,-0.0156 3.34567,2.16773 6.69135,4.33547 10.03703,6.50319 0.73642,-0.32694 1.44032,-0.74016 2.20928,-0.9808 0.0105,-0.003 0.45825,0.62808 0.0135,-0.10065 -2.11746,-2.49263 -4.20341,-5.01171 -6.18431,-7.61555 -5.55973,-7.22563 -10.90775,-14.60109 -15.98356,-22.17789 -6.48078,-9.13104 -13.00675,-18.23145 -19.67428,-27.22695 -2.73833,-3.46542 -5.5286,-6.98146 -9.07838,-9.66252 z" />
      <path
         style="fill:#ffffff;fill-opacity:1;stroke-width:4.152"
         id="path38"
         d="m 723.76732,195.82394 c 0.66548,1.68436 0.99687,3.47958 1.28008,5.2617 0.46632,2.91512 1.0669,5.80779 1.65606,8.7002 1.5892,6.55211 2.55387,13.22078 3.46301,19.89352 0.88352,6.16991 1.57091,12.36489 2.33455,18.55038 0.26199,2.51629 0.66319,5.01474 1.00704,7.5211 0.16678,1.93401 0.57162,3.83342 0.82504,5.75583 0.19362,1.46352 0.58671,2.89181 0.92894,4.32653 0.48721,1.52756 0.83914,3.08837 1.01566,4.68171 0.0375,1.17488 0.28444,2.25326 0.71733,3.33783 0.39129,0.90702 1.31379,1.90327 2.33752,2.09286 0.73838,0.1368 1.5018,-0.0135 2.2527,-0.0198 15.20627,8.70144 6.14668,4.2671 3.54355,2.02277 -0.25721,-0.22176 -0.36825,-0.57072 -0.55238,-0.85608 0,0 -0.41113,-0.19149 -0.41113,-0.19149 v 0 c 0.18404,0.28552 0.76872,0.59484 0.55215,0.85657 -0.0797,0.0962 -1.84753,-0.0919 -2.10337,-0.11625 2.58996,1.63638 5.17991,3.27276 7.76986,4.90914 0.81268,0.0252 1.63392,-0.0447 2.43806,0.0754 0.6755,0.10095 1.90116,1.1648 1.68213,-0.1437 -0.20965,-1.01143 -0.72987,-1.88976 -0.61014,-2.95545 -0.18471,-1.65642 -0.39276,-3.32152 -0.89734,-4.91706 -0.4638,-1.37344 -0.72589,-2.83765 -1.1112,-4.22509 -0.39513,-1.92366 -0.85107,-3.85131 -1.04016,-5.80409 -0.35873,-2.73496 -1.46297,-5.28691 -1.8782,-8.01492 -1.2969,-6.33933 -2.51552,-12.68815 -3.47776,-19.08949 -0.94363,-6.68652 -1.70772,-13.4283 -3.38985,-19.9806 -0.73318,-3.05994 -1.49319,-6.10848 -2.35554,-9.1352 -0.74933,-1.91457 -1.22183,-3.91324 -2.06078,-5.79241 z" />
      <path
         style="fill:#ffffff;fill-opacity:1;stroke-width:4.152"
         id="path39"
         d="m 754.33795,209.92767 c 0.92685,1.51518 1.82394,3.05411 2.65227,4.62615 0.39317,0.82295 0.61778,1.69851 0.70281,2.60325 0.10815,0.54759 -0.003,1.15146 0.20325,1.67445 0.21445,0.52527 0.89095,0.74177 1.36318,0.98247 0.78831,0.32243 5.00432,1.70994 5.33534,3.25039 -0.0522,0.0835 -0.1044,0.16697 -0.15653,0.25046 0,0 0.37856,0.2498 0.37856,0.2498 v 0 c 0.18136,0.0105 0.36273,0.0217 0.5441,0.0326 1.22205,0.46233 2.21819,1.3404 3.41407,1.82661 1.09038,0.44329 2.2056,0.82294 3.30495,1.24353 0.1592,0.0609 0.31352,0.1338 0.47026,0.20076 0.32501,0.1509 1.08296,0.72243 1.38384,0.38299 0.29518,-0.42144 0.11116,-1.12848 0.19364,-1.61244 -0.0462,-1.09299 -0.19663,-2.19192 -0.65853,-3.19698 -0.72306,-1.69732 -1.8968,-3.13275 -2.68058,-4.80001 z" />
      <path
         style="fill:#ffffff;fill-opacity:1;stroke-width:4.152"
         id="path40"
         d="m 768.48167,242.53822 c 1.32135,-0.62298 2.41227,-1.73454 3.79614,-2.22609 0.27005,-0.17852 0.52912,-0.22104 0.83806,-0.19459 0.0165,0.009 0.033,0.0183 0.0495,0.0274 -5.04164,-2.60751 -10.08326,-5.215 -15.12488,-7.82251 0.22476,0.24003 0.4189,0.37449 0.55054,0.68985 0.14716,0.67855 0.22309,1.33466 0.53466,1.97319 0.28013,1.10192 0.576,2.2085 0.8585,3.31784 0.3315,1.57166 0.33182,3.1804 0.37932,4.77823 -0.12015,2.05185 0.18204,4.08015 0.45502,6.10685 0.15765,1.99095 0.34154,3.96145 0.66101,5.93368 0.18552,1.83032 0.61924,3.61532 0.94278,5.42238 0.24624,1.48361 0.30643,2.97011 0.65466,4.43612 0.32697,1.21132 0.37732,2.46613 0.43015,3.71199 0.001,1.07416 -10e-4,2.14912 -0.0216,3.2232 -0.1083,1.02687 0.19217,1.92108 0.58539,2.84412 0.19644,0.60178 0.2859,1.21804 0.34787,1.84461 0.0759,0.80421 0.0223,1.46565 0.55732,2.1259 0.42666,0.6163 0.81794,1.28347 1.42511,1.73653 2.85052,1.59307 6.19747,3.30492 9.15117,4.12598 0.57817,0.16071 -0.87228,-0.84672 -1.17188,-1.3667 -0.16446,-0.28542 -0.1173,-0.6483 -0.1759,-0.97246 0,0 -0.40194,-0.2101 -0.40194,-0.2101 v 0 c -0.0582,0.26304 0.047,0.63613 -0.17475,0.7891 -0.32396,0.22347 -1.49147,-0.0901 -1.17233,0.1401 2.40857,1.73814 5.94546,3.79981 9.07988,4.9578 0.50988,0.0519 0.4993,-0.56787 0.48877,-0.9621 -0.004,-0.79305 -0.55912,-0.40177 -0.28476,-1.38891 0.003,-0.7083 -0.008,-1.42006 -0.15243,-2.11526 -0.1215,-0.90758 -0.69204,-1.59017 -0.7333,-2.46548 -0.0158,-1.12048 -0.015,-2.2402 -0.0835,-3.35964 -0.0648,-1.38764 -0.23379,-2.76327 -0.53627,-4.12031 -0.17419,-0.64465 -0.51174,-1.29723 -0.65314,-1.94037 -0.18222,-0.82879 -0.0873,-1.73128 -0.29234,-2.56012 -0.41632,-1.82285 -0.92697,-3.62199 -1.13926,-5.48274 -0.39303,-1.97967 -0.78888,-3.93633 -0.86553,-5.96208 -0.26846,-2.00673 -0.7811,-3.98532 -0.67556,-6.02678 -0.006,-1.69923 -0.033,-3.423 -0.3549,-5.0949 -0.23841,-1.25118 -0.81703,-2.34132 -0.94152,-3.60114 -0.24724,-0.77151 -0.92229,-1.24323 -0.87085,-2.09472 -2.0123,-6.40296 -6.37472,-4.83237 -16.02728,-9.54249 0.1107,0.24966 0.11415,0.42431 -0.0366,0.68 -0.29371,1.25598 -1.38711,2.21535 -1.84044,3.41052 z" />
      <path
         style="fill:#ffffff;fill-opacity:1;stroke-width:4.152"
         id="path41"
         d="m 828.36031,241.02611 c -0.55583,-1.43136 -1.31304,-2.75355 -2.23623,-3.97556 -4.39796,-4.77564 -10.47288,-9.1807 -17.01606,-9.6946 -0.78053,0.042 -1.56242,0.063 -2.34423,0.064 -1.01808,-0.0955 -1.88252,0.45211 -2.84579,0.72027 -1.0047,0.0668 -1.83807,0.62192 -2.78983,0.91438 -0.92412,0.54618 -1.88484,1.01622 -2.85698,1.46492 -1.23789,0.55209 -2.28666,1.51017 -3.29532,2.40843 -1.76286,1.78591 -3.12316,3.86677 -4.20459,6.11838 -1.54333,3.79105 -2.58349,7.7829 -3.46902,11.7745 -0.62566,2.11202 -0.74209,4.2317 -0.47554,6.40032 0.1389,1.48316 0.68628,2.89241 1.20852,4.27686 0.71767,1.99167 1.56685,3.92387 2.60598,5.76837 0.94521,1.67759 2.03955,3.25587 3.23472,4.76283 0.69273,0.89394 1.46841,1.67744 2.45742,2.238 16.40538,9.29865 10.21743,7.70655 17.2441,9.40652 2.09147,0.39039 3.78377,0.70546 5.8119,-0.0477 1.84944,-0.55634 3.49398,-1.5468 5.11727,-2.56854 1.96762,-1.34078 3.67153,-3.01584 5.36454,-4.67808 1.80583,-1.72901 2.91223,-3.90242 4.00441,-6.10794 1.0074,-1.96443 1.44966,-4.13031 1.91741,-6.26873 0.4585,-2.18286 0.79986,-4.39885 1.10047,-6.61083 0.33876,-3.56863 0.32595,-7.16262 0.43109,-10.74444 0.067,-2.39194 0.13065,-4.78342 0.23617,-7.17391 -8.7e-4,-0.90617 0.26532,-1.8321 0.009,-2.71914 -5.03752,-2.86454 -10.06192,-5.75223 -15.11254,-8.59358 -0.51621,-0.29041 -0.95283,0.764 -1.08249,0.97337 0.14745,-0.21006 -0.4773,0.90874 -0.35003,0.68586 0.29801,-0.52182 0.27486,-0.65375 0.28166,-0.35938 -0.012,0.47244 -0.0873,0.93878 -0.141,1.40755 -0.077,2.58129 -0.0312,5.1656 -0.0159,7.74792 0.24264,4.35681 0.57306,8.7021 0.67504,13.06611 -0.012,4.28328 0.008,8.55738 0.29469,12.83193 0.2916,3.3798 0.41093,6.76705 0.4448,10.15767 0.0216,1.4748 -0.0279,2.94896 -0.012,4.4237 -0.0274,1.48992 -0.006,2.98078 0.027,4.47043 0.058,2.685 0.45102,5.351 0.68625,8.02605 0.17401,2.25599 0.23415,4.51923 0.24577,6.78131 -0.0425,1.10454 -0.0254,2.21392 -0.1335,3.31506 -0.0344,0.40675 0.0531,0.92164 -0.1005,1.16721 -0.34225,0.46896 -0.52575,1.04572 -0.71829,1.59085 -0.1356,0.55763 0.0762,0.57938 -0.43203,1.03238 -0.5728,0.71628 -1.11027,1.48663 -1.85976,2.03476 -0.681,0.36263 -1.25286,0.84171 -2.0068,1.11707 -0.45197,0.11055 -0.95999,0.0359 -1.43313,0.0266 -0.69824,0.003 -1.39596,-0.009 -2.09415,0.007 -0.88698,-0.19325 -1.43418,0.57906 -2.22971,0.7882 -0.55602,0.18494 -1.14319,0.16238 -1.72246,0.1482 -0.60048,-0.003 -1.2012,-0.0255 -1.80162,-0.015 -0.64646,0.0217 -1.29351,-0.0135 -1.93973,0.003 -0.74266,0.0161 -1.48624,0.0192 -2.22909,0.006 -0.47595,-0.001 -0.95164,-1.8e-4 -1.42765,-0.012 -0.41838,0.0105 -0.8367,0.015 -1.2552,0.0233 -0.43251,-0.003 -0.86429,0.0176 -1.2969,0.012 -0.0105,4.6e-4 -0.4808,0.0215 -0.48563,0.015 -0.0753,-0.10215 -0.13905,-0.44129 -0.0282,-0.3796 5.29716,2.94666 10.47171,6.10884 15.73445,9.11655 0.0985,0.0564 -0.129,-0.19664 -0.22698,-0.25388 -5.37131,-3.1368 -10.77767,-6.21319 -16.16649,-9.3198 -0.31877,-0.28281 -0.86483,0.1026 -1.20092,-0.10215 -0.18874,-0.11505 -0.28395,-0.34233 -0.45508,-0.48218 -0.12811,-0.0285 -0.26451,-0.0319 -0.38432,-0.0855 -0.30523,-0.13649 -1.13667,-0.70454 -0.847,-0.53749 26.39888,15.22459 19.09113,11.57367 14.11249,8.05712 -1.53643,-1.00256 -2.58504,-2.58141 -3.63401,-4.05497 -5.63173,-6.62976 1.71627,2.16203 -3.23898,-4.19941 -1.51303,-1.9424 -2.86077,-2.87672 -3.63847,-5.21072 -0.19002,-0.57027 -0.0851,-1.19916 -0.12765,-1.79874 0,0 -0.40311,-0.20784 -0.40311,-0.20784 v 0 c 0.26785,3.78644 -0.11655,2.35728 -2.77775,3.69248 -4.86256,2.43969 3.29329,-0.67214 -2.3482,1.35106 -1.53518,1.47164 -1.3806,1.7159 -0.39261,3.26742 5.49669,4.51878 12.10712,7.4978 18.35848,10.82307 0.61901,0.2147 1.25676,0.1095 1.74851,0.64365 -5.21873,-3.01515 -10.45293,-6.00364 -15.65618,-9.04543 -0.0811,-0.0474 0.19532,0.007 0.27669,0.0546 5.38341,3.11358 10.67873,6.38017 16.10435,9.41956 0.12645,0.0708 0.72321,-0.3357 0.95329,-0.1452 0.44477,-0.004 0.88878,0.0155 1.33346,0.012 0.44079,0.009 0.88134,0.012 1.32204,0.0233 0.46461,-0.012 0.92892,-0.009 1.39348,-0.012 0.74861,-0.0135 1.49798,-0.009 2.24642,0.007 0.65103,0.0168 1.3029,-0.015 1.95409,0.0105 0.62123,0.0135 1.24445,0.004 1.86372,-0.0489 0.69053,-0.084 1.35719,-0.25191 1.98675,-0.55669 0.67427,-0.33866 1.16222,-0.39155 1.91172,-0.30872 0.7343,0.0216 1.46834,0.0243 2.20289,0.0135 0.64605,-0.0439 1.26414,-0.1494 1.82854,-0.49141 0.78302,-0.42254 1.50203,-0.93843 2.27279,-1.37823 0.76617,-0.63648 1.37137,-1.42011 2.09683,-2.1018 0.42422,-0.4424 1.07381,-0.93314 1.02453,-1.60556 0.0834,-0.44049 0.19946,-0.87997 0.47622,-1.24216 0.40713,-0.68402 0.5264,-1.15307 0.42912,-1.93946 -0.095,-1.15903 -0.0853,-2.32368 -0.14445,-3.48466 -0.0366,-2.30429 -0.0777,-4.60931 -0.2562,-6.90815 -0.19969,-2.62092 -0.62466,-5.23402 -0.64098,-7.86187 0.0358,-1.47894 0.0597,-2.95908 0.0376,-4.43841 0.016,-1.52255 -0.0588,-3.04263 -0.13755,-4.56288 -0.21439,-3.46019 -0.49356,-6.91682 -0.74715,-10.37429 -0.33361,-4.30299 -0.3391,-8.60914 -0.56808,-12.91839 -0.23722,-4.36293 -0.49626,-8.72449 -0.82704,-13.08126 0.0158,-2.58729 0.0612,-5.17638 -0.0135,-7.76272 -0.0555,-0.5469 -0.12285,-1.09167 -0.15922,-1.64024 -0.0408,-0.66673 0.52284,-1.43392 -0.18186,-0.28318 -0.13245,0.20761 -0.26501,0.41523 -0.39752,0.62284 -0.0549,0.078 -0.11325,0.15371 -0.16471,0.23411 -0.039,0.061 0.16128,0.23022 0.0984,0.19396 -4.86506,-2.80833 -9.73125,-5.61471 -14.59689,-8.42206 1.27281,-0.16484 0.67161,0.72798 0.85201,1.72359 0.1107,2.45395 0.17633,4.90914 0.18005,7.36594 -0.007,3.48912 -0.0645,6.98868 -0.6084,10.44353 -0.3759,2.15583 -0.82017,4.29387 -1.16648,6.45411 -0.51418,2.00874 -0.93163,4.06477 -1.86864,5.93121 -1.05669,2.04975 -2.15508,4.05021 -3.87703,5.63662 -1.7055,1.55333 -3.4374,3.10616 -5.44767,4.26114 -1.60466,0.88208 -3.21794,1.73336 -5.01525,2.16005 -1.86524,0.23092 -3.73605,-0.13635 -5.51637,-0.70749 -6.13779,-2.48211 -1.18545,-0.53187 13.52002,8.01211 1.07496,0.62456 -3.87585,-1.95711 -2.55771,-1.7461 -1.21986,-1.4187 -2.38429,-2.89553 -3.2563,-4.5597 -1.17468,-1.71783 -2.11992,-3.56205 -2.80419,-5.53106 -0.46794,-1.3428 -1.00947,-2.66752 -1.36082,-4.03801 -0.38293,-2.0937 -0.77398,-4.10207 -0.24442,-6.2348 0.63265,-3.95002 1.52022,-7.88313 3.11919,-11.56633 0.97969,-2.08977 2.17962,-4.04291 3.88714,-5.62773 0.98285,-0.7878 2.00157,-1.55558 3.16721,-2.05391 0.95149,-0.44355 1.90746,-0.88807 2.86992,-1.29948 0.8985,-0.35757 1.77705,-0.69234 2.7249,-0.89971 0.86293,-0.30335 1.64119,-0.52107 2.56936,-0.41514 0.73116,-0.0135 1.48695,-0.0478 2.19621,0.15487 6.89129,2.21421 -20.3778,-11.37904 -12.54931,-7.40748 0.97794,1.06239 1.9771,2.20245 2.43448,3.59273 z" />
      <path
         style="fill:#ffffff;fill-opacity:1;stroke-width:4.152"
         id="path42"
         d="m 840.92021,197.38966 c 3.24804,4.17798 4.14305,9.542 5.00299,14.62128 1.05359,7.65665 1.10752,15.39889 1.12552,23.11293 -0.0808,6.44382 0.16662,12.88464 0.29783,19.32614 0.10725,3.20217 0.0372,6.40516 0.0286,9.60782 -0.0435,1.2934 -0.0558,2.58703 -0.0845,3.88065 -0.0415,0.85332 0.32846,1.63565 0.63081,2.41352 0.37149,0.4045 0.34761,1.11842 0.38793,1.64238 0.44603,6.36092 17.50026,15.79784 16.49408,8.8585 0.22659,-3.47809 0.75856,-6.92866 1.20976,-10.38279 0.57717,-5.26279 1.18937,-10.51987 1.83582,-15.77492 0.35774,-2.4345 0.70181,-4.99911 1.9439,-7.17557 0.60472,-1.05965 1.20823,-1.67673 1.99489,-2.59575 1.95044,-2.00639 4.32764,-3.48741 6.63434,-5.03457 1.51311,-1.2074 3.29965,-1.99217 4.88761,-3.07859 1.35422,-0.97492 2.78163,-1.54372 4.4154,-1.82679 1.82747,-0.40495 3.54483,0.015 5.33426,0.34703 0.31518,0.048 0.63523,0.0708 0.94552,0.144 0.74753,0.17629 1.10447,0.37674 1.78667,0.7246 0.27181,0.1386 1.07296,0.58137 0.80829,0.42957 -14.99733,-8.60179 -19.06464,-11.60041 -13.95309,-7.87486 1.27522,1.06384 1.59444,2.5814 1.76778,4.15279 0.1224,1.82268 0.0252,3.64947 0.0199,5.47391 0.015,1.7839 -0.0918,3.56508 -0.13755,5.34726 -0.0482,1.89182 0.38236,3.75886 0.58125,5.63646 0.2463,2.17509 0.20367,4.33188 -0.1398,6.48959 -0.20019,1.4351 -0.55694,2.84536 -0.55906,4.29855 0.11324,1.01613 0.4289,1.99185 0.58294,3.00169 0.14505,0.79987 0.1449,1.60861 0.32944,2.40125 0.3535,1.0659 0.43016,2.19565 0.70623,3.27758 0.4712,1.22636 1.42123,0.78929 2.53442,1.31792 1.60006,0.75981 3.27635,2.18102 4.6746,3.27889 0.29244,0.44867 0.39763,0.37781 -0.003,0.38047 0,0 0.37259,0.2586 0.37259,0.2586 v 0 c 0.5524,-0.006 0.17398,-0.0356 1.08177,0.35614 1.37827,0.80437 4.38871,2.631 5.80378,3.14031 0.62112,0.22356 1.31093,0.15678 1.96565,0.24117 0.34564,0.0446 0.53817,0.1401 0.66538,-0.23925 0.0382,-1.15431 -0.26592,-2.29679 -0.48132,-3.42195 -0.0941,-0.29996 -0.28285,-0.5667 -0.36157,-0.87105 -0.1131,-0.43709 0.12225,-0.9591 -0.0597,-1.39481 -0.17684,-1.02748 -0.33875,-2.06269 -0.74658,-3.03046 -0.43313,-1.27671 0.077,-2.73387 0.15381,-4.04007 0.3022,-2.29749 0.55305,-4.56442 0.18898,-6.87865 -0.17589,-1.86442 -0.53448,-3.69752 -0.74295,-5.54791 -0.0371,-1.82255 -0.1269,-3.64463 -0.0978,-5.4685 0.008,-1.91304 -0.0373,-3.82847 -0.18174,-5.73647 -0.18689,-1.84893 -0.42214,-3.73811 -1.59987,-5.25388 -5.22011,-5.41113 -12.58869,-9.55477 -20.088,-10.71678 -1.82364,-0.23476 -3.63323,-0.24859 -5.42088,0.26364 -1.63362,0.51927 -3.06498,1.35382 -4.39662,2.43478 -1.52709,1.09826 -3.15656,2.05452 -4.63388,3.22493 -2.34337,1.6563 -4.67609,3.33573 -6.63223,5.45757 -0.84317,1.04233 -1.47373,1.72881 -2.12468,2.91996 -1.27078,2.32536 -1.64836,5.00744 -2.03844,7.58654 -0.55822,5.20089 -1.06798,10.42138 -2.06907,15.55815 -0.73705,3.22918 -1.37594,6.4988 -2.57668,9.59638 -2.90895,6.27563 15.57939,15.72039 16.27969,8.58405 0.0349,-0.71382 0.0854,-1.42413 0.0483,-2.13855 -0.31495,-0.58406 -0.49828,-1.23285 -0.865,-1.78368 -0.0237,-1.33107 -0.0295,-2.66226 -0.0928,-3.99248 -0.0681,-3.29455 -0.29003,-6.58398 -0.43617,-9.87559 -0.4112,-6.54975 -1.03167,-13.09514 -1.04252,-19.66232 -0.1494,-7.82324 -0.19504,-15.68586 -1.29664,-23.4466 -0.85815,-5.23062 -1.73048,-10.62796 -4.57143,-15.21046 z" />
      <path
         style="fill:#ffffff;fill-opacity:1;stroke-width:4.152"
         id="path44"
         d="m 917.2253,239.58452 c 1.7065,0.27782 3.46066,-1.5e-4 5.18323,-0.0785 2.42585,-0.34224 4.83245,-0.78363 7.1687,-1.5273 3.49164,-1.14339 6.9834,-2.29483 10.50223,-3.36628 3.30701,-1.07823 6.6213,-2.09513 10.03224,-2.78616 0.0837,-0.0166 0.99084,-0.16032 1.17371,-0.29951 0.23695,-0.18036 -0.0942,-0.47493 -0.1464,-0.58315 -0.13906,-0.28803 -0.10981,-0.70646 -0.37691,-0.88244 -3.32965,-2.19376 -6.84699,-4.08846 -10.27048,-6.13269 0.48632,0.68457 1.15594,1.18436 1.53751,1.94828 0.038,0.0761 -0.0405,0.1699 -0.0264,0.25375 0.0258,0.15291 0.096,0.2949 0.144,0.44237 -0.47142,0.19173 -0.18189,0.132 -0.88679,0.009 0,0 0.36883,0.26395 0.36883,0.26395 v 0 c 0.89433,0.15467 0.41043,0.0429 1.44324,0.36975 2.00001,0.777 3.99777,1.53681 5.86515,2.61018 -3.2489,-2.03952 -6.58394,-3.94783 -9.74669,-6.11854 -0.25378,-0.17418 -0.20105,-0.59361 -0.3886,-0.83766 -0.51164,-0.66573 -1.63986,-0.23528 -2.234,-0.0354 -3.13993,1.10511 -6.26487,2.26559 -9.46066,3.20014 -3.65369,1.05863 -7.3284,2.03757 -11.00361,3.01838 -2.34906,0.59484 -4.72686,1.06551 -7.15412,1.18566 -1.72683,0.10935 -3.45543,0.21693 -5.13684,-0.29322 z" />
      <path
         style="fill:#ffffff;fill-opacity:1;stroke-width:4.152"
         id="path45"
         d="m 922.96689,203.91502 c -0.24162,1.46997 -0.42136,2.94656 -0.75435,4.39982 -0.43015,1.55689 -0.56823,3.17329 -0.79449,4.76818 -0.35325,1.95725 -0.51894,3.93486 -0.61734,5.91847 -0.0255,1.96511 -0.21707,3.9103 -0.42781,5.86134 -0.16542,2.13198 -0.24466,4.27426 -0.57735,6.38836 -0.28502,1.42661 -0.42146,2.8728 -0.5675,4.31779 -0.0499,1.15577 -0.0565,2.31276 -0.0975,3.46866 0.015,0.91533 0.27267,1.80584 0.46834,2.69555 0.1395,0.8085 0.20303,1.62486 0.19614,2.44483 0.0174,1.00679 0.006,2.01218 -0.0204,3.01842 -0.10289,1.07007 0.21263,2.0807 0.44736,3.10984 0.32496,0.85044 0.43572,1.78144 0.77771,2.62028 0.17979,0.51759 0.46245,0.98255 0.55432,1.52682 -0.0525,0.66603 0.18462,1.2023 0.38523,1.81683 0.2706,0.70231 0.27345,1.46535 0.49362,2.17886 0.24716,0.41929 0.24533,0.9728 0.56735,1.3555 0.24655,0.18438 0.1407,0.0807 0.32218,0.30602 0.23565,0.23867 0.0283,0.33972 0.13215,0.65026 0.005,0.0156 0.36926,0.27581 0.41748,0.33057 0.0539,0.0163 0.1317,10e-4 0.16173,0.0489 0.0618,0.0979 0.031,0.23378 0.0825,0.33747 0.17918,0.36045 0.5075,0.75143 0.72792,1.09991 0.24656,0.58321 0.74901,0.90114 1.15854,1.36722 0.34964,0.61443 0.90291,0.89745 1.46912,1.27567 8.64115,5.65637 10.00551,8.78679 16.54,8.87621 0.0936,0.11115 0.28994,-0.1203 0.37595,-0.0286 0.0652,0.0694 -0.0135,0.20376 0.0385,0.28315 0.0842,0.1269 0.52854,0.25131 0.67027,0.31874 0.34313,0.11475 0.76578,0.0735 1.14389,0.0838 0.77473,-0.16883 0.53431,0.21337 1.10293,-0.64028 -0.12555,0.36354 0.29807,-0.63969 0.22574,-0.47877 -0.11235,0.25008 -0.0992,0.24609 0.12,0.23838 0.0887,0.012 0.18592,-0.005 0.0474,0.0312 -1.34037,-0.88302 -2.52046,-2.31481 -3.68119,-3.46542 0.0151,-0.18244 0.0301,-0.36489 0.0453,-0.54735 -0.0954,-0.267 -0.28184,-0.5175 -0.28616,-0.80098 -10e-4,-0.0726 0.48571,-0.93542 0.55641,-0.99378 0.15717,-0.12975 0.37524,-0.1593 0.56286,-0.23897 0,0 -0.38025,-0.24721 -0.38025,-0.24721 v 0 c -1.72323,0.66985 -3.40908,0.0453 -5.14324,-0.2736 -0.70308,-0.32856 -1.42603,-0.6176 -2.10926,-0.98567 -1.22511,-0.65997 -2.41415,-1.78462 -3.79987,-2.11612 -0.1653,0.034 -0.31008,0.073 -0.4434,0.18652 -0.0962,0.0693 -1.06646,0.95766 -0.67067,0.76221 0.43318,-0.72532 0.1077,-0.28611 -0.36075,-0.508 -0.32702,-0.0795 -0.58273,-0.21686 -0.85302,-0.4043 -0.17979,-0.0776 -0.53182,-0.3081 -0.72196,-0.30393 -0.25977,0.006 -0.40788,0.19848 -0.67482,0.0592 -0.36843,-0.0798 -0.6764,-0.26292 -0.9866,-0.47487 4.90172,2.84124 9.80342,5.6825 14.70512,8.52374 -0.24991,-0.1769 -0.50561,-0.42177 -0.77213,-0.56735 -0.16578,-0.0906 -0.384,-0.0486 -0.5489,-0.14085 -0.0802,-0.0448 -0.12225,-0.1371 -0.18342,-0.20575 -0.21016,-0.23901 -0.43344,-0.73628 -0.6825,-0.90608 -0.0795,-0.0542 -0.20197,6.9e-4 -0.28429,-0.0491 -0.0856,-0.0517 -0.1245,-0.15694 -0.18666,-0.23542 -0.1308,-0.16974 -0.2838,-0.32346 -0.39783,-0.50484 -0.1086,-0.17273 -0.1038,-0.4104 -0.23835,-0.5637 -0.045,-0.0513 -0.16571,0.005 -0.1964,-0.057 -0.051,-0.1011 -0.003,-0.2264 -0.003,-0.3396 -0.0364,-0.0582 -0.18882,-0.29846 -0.21382,-0.35058 -0.0348,-0.0725 -0.006,-0.21522 -0.0863,-0.22532 -0.10185,-0.0135 -0.14505,0.17982 -0.24762,0.18305 -0.1374,0.004 0.0448,-0.43613 -0.1263,-0.39255 -0.0638,-0.19269 -0.0732,-0.40887 -0.17939,-0.58182 -0.21847,-0.35589 -0.77718,-0.37569 -0.73788,-0.90639 -0.33765,-0.72537 -0.25782,-1.20141 -0.36412,-1.99352 -0.0687,-0.27628 -0.0774,-0.77476 -0.28029,-0.99465 -0.043,-0.0466 -0.1512,-0.006 -0.17963,-0.0626 -0.0813,-0.16231 0.093,-0.38164 -0.0187,-0.54433 -0.0503,-0.67986 -0.0748,-1.33605 -0.45229,-1.93218 -0.0994,-0.22707 -0.28013,-0.41354 -0.37305,-0.64337 -0.23907,-0.59131 -0.2114,-1.3144 -0.56987,-1.87285 -0.18345,-0.49286 -0.22308,-0.9699 -0.35935,-1.4744 -0.0716,-0.26467 -0.23759,-0.50155 -0.28473,-0.77163 -0.0292,-0.16717 -1.8e-4,-0.33942 -2.7e-4,-0.50913 -0.0225,-1.01844 -0.0288,-2.0359 -0.019,-3.05475 -0.0213,-0.86805 0.0625,-1.74136 -0.0463,-2.60494 -0.0905,-0.85961 -0.31692,-1.6998 -0.60263,-2.51412 -0.0396,-1.14656 -0.0474,-2.29587 -0.012,-3.44247 0.006,-1.44125 0.12885,-2.8779 0.32609,-4.30542 0.27471,-2.16924 0.24655,-4.34111 0.44995,-6.51729 0.19574,-2.02391 0.38166,-4.03472 0.24287,-6.07142 0.0198,-1.96912 0.0553,-3.94485 0.31422,-5.89971 0.24822,-1.60011 0.37306,-3.20386 0.57381,-4.81003 0.26086,-1.49085 0.34978,-2.98823 0.61153,-4.47908 z" />
      <ellipse
         style="fill:#ffffff;fill-opacity:1;stroke-width:3.68949"
         id="path206"
         cx="652.94171"
         cy="238.10437"
         rx="13.433863"
         ry="12.393704" />
    </g>
    <path
       style="mix-blend-mode:lighten;fill:#ffffff;fill-opacity:1;stroke:none;stroke-width:24.0001;stroke-dasharray:none;stroke-opacity:1;paint-order:stroke fill markers"
       d="m 222.358,405.67595 c -33.55948,-2.85754 -64.56452,-17.65895 -87.49803,-41.77048 -24.60339,-25.8672 -38.372113,-60.23535 -38.372113,-95.78074 0,-30.80094 10.071163,-60.33802 29.066443,-85.24713 4.07402,-5.34238 16.69783,-18.24195 22.13414,-22.61763 12.03419,-9.6863 26.85254,-17.84965 41.74524,-22.99721 4.58663,-1.58533 15.43896,-4.53525 15.70257,-4.26831 0.076,0.0769 -2.04174,1.50526 -4.70589,3.17418 -22.69284,14.21562 -40.35607,36.7013 -49.3313,62.79983 -6.78332,19.72482 -8.40358,42.37477 -4.54784,63.5757 4.46564,24.55467 16.61785,47.5178 34.26202,64.74248 12.86502,12.55915 27.5039,21.58536 43.7954,27.00393 12.10177,4.02505 22.17296,5.62081 35.47402,5.62081 13.17477,0 23.44785,-1.64559 35.44389,-5.67763 24.25958,-8.15394 45.14823,-24.41769 59.70488,-46.48576 4.21335,-6.38751 9.71914,-16.8739 11.58641,-22.06758 0.59263,-1.64839 1.15149,-2.77232 1.2419,-2.49763 0.24406,0.74142 -1.55649,11.5421 -2.84161,17.04555 -6.09427,26.09843 -20.98946,51.6194 -40.63136,69.61659 -21.29887,19.51542 -46.68867,31.38264 -75.17316,35.13604 -6.83137,0.90018 -20.51713,1.25172 -27.05561,0.69499 z"
       id="path7" />
    <path
       style="mix-blend-mode:lighten;fill:#ffffff;fill-opacity:1;stroke:none;stroke-width:24.0001;stroke-dasharray:none;stroke-opacity:1;paint-order:stroke fill markers"
       id="path18"
       d="m 26.057003,284.29272 c 2.52306,0.39381 5.014545,-0.66693 7.360733,-1.4507 8.483771,-2.94343 16.983141,-5.83849 25.542071,-8.55397 14.23268,-4.49031 28.5796,-8.59911 42.931683,-12.6827 19.36383,-5.323 38.94194,-9.80734 58.59852,-13.88457 23.02993,-4.83086 46.25908,-8.56186 69.5437,-11.89194 23.49377,-3.33013 47.09766,-5.73385 70.69721,-8.14774 20.51111,-1.88607 41.00774,-3.95114 61.54895,-5.48351 12.55401,-0.9565 25.12537,-1.65703 37.69193,-2.42088 4.4147,-0.26179 8.83534,-0.51615 13.25926,-0.52641 0.0911,-0.0134 1.06186,0.0607 0.51202,-0.3117 -2.8228,-1.91179 -5.60118,-3.89471 -8.49959,-5.68858 -0.43914,-0.2718 0.79193,0.68046 1.0906,1.10304 0.0971,0.13725 0.0299,0.3354 0.0446,0.5031 0.22533,0.9109 0.36145,0.64053 -0.74867,0.51009 0,0 0.2617,0.18644 0.2617,0.18644 v 0 c 1.55878,0.18209 0.62217,-0.0115 2.73427,0.87212 0.46317,0.16576 0.94275,0.29097 1.38951,0.49729 0.70713,0.32655 2.67543,1.58058 2.06355,1.09732 -0.46965,-0.37092 -5.74783,-6.06297 -9.17872,-5.92699 -4.11985,0.4081 -8.24558,0.75703 -12.36344,1.18639 -12.06423,1.29411 -24.15975,2.25078 -36.23531,3.42771 -20.1917,2.02404 -40.38887,3.99944 -60.56517,6.17343 -23.57653,2.44448 -47.15361,4.91226 -70.62825,8.22747 -23.31793,3.35911 -46.55898,7.20693 -69.65913,11.85993 -19.90755,3.92234 -39.70942,8.35626 -59.358513,13.43633 -14.52817,3.95047 -29.05792,7.921 -43.44509,12.36683 -8.82448,2.64107 -17.590291,5.48914 -26.475924,7.91789 -2.385967,0.60095 -4.882192,1.47589 -7.36029,0.92441 z" />
    <g
       id="g206"
       transform="matrix(0.50421162,0,0,0.49550873,-13.525219,135.15165)"
       style="mix-blend-mode:lighten;fill:#ffffff;fill-opacity:1;stroke:#000000;stroke-width:48.0153;stroke-linecap:round;stroke-dasharray:none;stroke-opacity:1;paint-order:stroke fill markers">
      <path
         style="fill:#ffffff;fill-opacity:1;stroke:none;stroke-width:48.0153;stroke-linecap:round;stroke-dasharray:none;stroke-opacity:1;paint-order:stroke fill markers"
         id="path178"
         d="m 481.63216,15.514599 c 3.83429,1.691422 8.07129,1.9959 12.23744,2.102512 9.25806,-0.225132 18.25455,-2.577146 27.10915,-4.945743 8.19895,-2.201405 16.23494,-4.914278 24.25809,-7.6263576 3.11599,-1.1227347 6.20872,-2.0071032 9.5387,-1.497697 5.21261,0.8410267 14.6935,6.7549986 -4.61014,-3.64621243 1.28934,0.80959187 1.45915,1.0860387 0.66156,2.31223843 -2.51235,2.6818805 -5.292,5.1344726 -8.01843,7.6200051 -3.71598,3.4944035 -7.28627,7.1213525 -10.92376,10.6867885 -3.40676,3.348482 -6.67725,6.81798 -10.06099,10.185991 -3.57426,3.377763 -7.13767,6.7554 -10.61626,10.222132 -2.37433,2.058985 -4.50727,4.332631 -6.52736,6.69992 -0.81837,0.946635 -1.34685,2.005659 -1.4746,3.219072 0.32414,1.195554 1.58056,1.699781 2.59903,2.307506 0.25736,0.156346 0.50741,0.324025 0.77208,0.469004 35.22545,19.18997 1.30871,0.697638 1.95791,1.05491 4.32931,2.382561 8.66422,4.756186 13.01406,7.10504 0.75919,0.40996 1.55609,0.75451 2.32266,1.15198 -20.10487,-11.235345 -9.68159,-5.499607 -5.55837,-2.41306 2.12533,1.590967 1.9801,1.562442 3.99198,3.438126 3.75096,3.750299 6.95686,7.963962 9.63846,12.45313 2.94338,4.835037 4.69825,10.153687 6.15205,15.526736 1.48293,5.593517 1.4424,11.35737 0.83826,17.05434 -0.6474,6.19622 -2.45335,12.21292 -4.29071,18.17053 -1.45185,4.89916 -3.31601,9.662 -5.37611,14.35654 -1.62587,3.44305 -2.00269,4.72336 -5.83588,6.00408 -4.46033,0.76421 -9.09062,0.0862 -13.22137,-1.66081 -1.03575,-0.43806 -2.00983,-0.99641 -3.01473,-1.49462 2.77002,1.43858 5.39344,3.16525 8.31007,4.31571 1.3083,0.51606 -2.3038,-1.56398 -3.42224,-2.38772 -1.1801,-0.86915 -2.32549,-1.77993 -3.47118,-2.68936 -4.2866,-3.40262 -8.47237,-6.92331 -12.68141,-10.41077 -9.41407,-7.85536 -18.95,-15.57019 -28.74167,-23.00081 -3.9741,-3.01784 -7.93869,-6.04828 -11.8315,-9.15986 -0.64704,-1.01585 -1.40009,-0.19761 -0.99149,-0.0369 0.24389,0.0959 0.48724,-0.19303 0.73082,-0.28963 0.52671,-0.2089 1.05336,-0.4179 1.58004,-0.62685 11.56736,-4.831061 23.30656,-9.267978 35.18029,-13.375943 12.2924,-4.072088 24.67515,-7.903321 37.17496,-11.365752 10.53005,-2.801912 21.13599,-5.349886 31.77866,-7.739316 7.49323,-1.73539 15.08451,-3.066874 22.69744,-4.232788 4.05695,-0.606118 8.15254,-0.89641 12.25623,-0.958596 1.67615,0.04077 3.38206,-0.215185 4.94069,0.446467 0.81501,0.293936 1.67416,0.495869 2.54906,0.511653 0.41864,0.01328 0.83722,0.04812 1.2555,0.02047 0.95549,-2.9337 -5.32196,-3.518171 -8.06306,-5.161584 0.43191,0.564628 0.27835,0.517265 -0.0468,0.995499 0,0 0.31885,0.202282 0.31885,0.202282 v 0 c 0.98954,0.123215 1.87192,0.314973 2.75885,0.797652 -11.13968,-7.274468 -5.6699,-2.794792 -7.60325,-5.147784 -0.37803,-0.03672 -0.75943,-0.04085 -1.13467,-0.103374 -0.79572,-0.17637 -1.57561,-0.386103 -2.35714,-0.613526 -1.61761,-0.222754 -3.26323,0.01391 -4.88739,0.04561 -3.95068,0.268643 -7.88573,0.716808 -11.77376,1.444004 -7.41265,1.328152 -14.78914,2.861997 -22.07627,4.714335 -10.45134,2.562872 -20.85724,5.300532 -31.22628,8.145719 -12.25987,3.616445 -24.38402,7.638764 -36.40389,11.914551 -12.16958,4.35727 -24.3106,8.832727 -36.7774,12.385478 -0.42691,0.13132 -4.20544,0.881704 -3.40153,2.206566 0.16875,0.278131 0.70677,0.252591 0.8039,0.589308 4.40004,3.216356 8.77926,6.458169 13.14933,9.710839 9.96252,7.35968 19.66332,15.01841 29.02207,23.06062 5.02115,4.2516 9.89172,8.70971 15.10827,12.7499 6.39938,4.95626 8.14051,5.14775 18.21263,10.82235 1.0825,0.49653 2.13427,1.0582 3.24753,1.48964 4.46763,1.73134 9.46628,2.29813 14.20038,1.39901 1.29318,-0.47294 2.04911,-0.62583 3.11676,-1.46741 1.6946,-1.33576 2.23327,-3.60061 3.07251,-5.41762 1.80956,-4.84591 3.67672,-9.6749 5.00078,-14.66848 1.7113,-6.05695 3.70246,-12.09972 4.29971,-18.37122 0.6057,-5.76059 0.91147,-11.58287 -0.44398,-17.280014 -1.50777,-5.408337 -3.18672,-10.804035 -5.99904,-15.756819 -2.71018,-4.647794 -6.04889,-8.949081 -9.85349,-12.853132 -6.35645,-6.353179 -13.62955,-9.872644 -21.93151,-14.169459 -0.76714,-0.386229 -3.04685,-1.582214 -2.29547,-1.169202 3.58097,1.968344 14.35065,7.829642 10.76098,5.875502 -43.24563,-23.542059 7.47308,4.01201 -2.67715,-1.428076 -0.8982,-0.607501 -1.92037,-1.066162 -2.78979,-1.645047 -0.78886,-0.11904 0.4197,-2.153217 0.64189,-2.4419 1.93239,-2.382928 3.99852,-4.645497 6.2524,-6.766461 3.31962,-3.564458 6.76862,-7.012451 10.31623,-10.375255 3.34163,-3.380537 6.58459,-6.846462 9.78831,-10.344197 3.49418,-3.625773 6.82026,-7.39841 10.45965,-10.898031 2.79605,-2.564442 5.70654,-5.014738 8.50004,-7.57716 1.05787,-1.3717637 1.52182,-2.5147604 -0.0734,-3.7373234 -5.64972,-3.0929151 -10.67597,-6.9779903 -17.16978,-7.852084 -3.38044,-0.2391852 -6.4464,0.8094833 -9.53883,2.0456904 -7.73145,3.0454493 -15.65206,5.6837678 -23.70286,7.8669363 -8.98782,2.3212387 -18.13501,4.5017757 -27.52542,4.3433557 -3.73066,-0.14826 -7.48275,-0.433487 -11.02094,-1.6506253 z" />
      <g
         id="g2"
         transform="matrix(0.82443431,0,0,0.76116895,-141.34793,129.54411)"
         style="mix-blend-mode:screen;fill:#ffffff;fill-opacity:1;stroke:none;stroke-width:60.6123;stroke-dasharray:none;stroke-opacity:1">
        <path
           style="mix-blend-mode:lighten;fill:#ffffff;fill-opacity:1;stroke:none;stroke-width:60.6123;stroke-linecap:round;stroke-dasharray:none;stroke-opacity:1;paint-order:stroke fill markers"
           id="path197"
           d="m 807.56454,137.47869 c 1.64012,-0.33426 3.35236,-0.60701 5.03092,-0.53413 2.70672,0.0323 5.36932,0.27379 8.02351,0.80645 3.17314,0.71567 6.26725,1.73387 9.27993,2.95248 6.23819,2.3314 -5.22451,-2.89974 -12.91698,-8.04786 -0.55606,-0.37214 1.37722,0.10148 1.9611,0.42827 1.12967,0.63226 0.84269,1.28294 0.77128,2.22914 -2.2007,0.9291 -0.90113,0.57589 -3.97965,0.6965 0,0 0.43544,0.30063 0.43544,0.30063 v 0 c 3.59853,-0.13975 1.72414,-0.24868 5.61556,0.4386 1.04292,0.34383 2.09563,0.65927 3.12876,1.03149 0.95935,0.34564 1.85211,0.89437 2.84627,1.12124 0.91134,0.20797 3.54222,0.73445 2.79932,0.1671 -3.64327,-2.78236 -10.37109,-7.2481 -15.90207,-9.62437 -2.97533,-1.04139 -6.02524,-1.88691 -9.11907,-2.49377 -2.6489,-0.41717 -5.36104,-0.76496 -8.02556,-0.2612 -1.35353,0.43748 -2.52957,1.1978 -3.83487,1.75242 z" />
        <path
           style="mix-blend-mode:lighten;fill:#ffffff;fill-opacity:1;stroke:none;stroke-width:60.6123;stroke-linecap:round;stroke-dasharray:none;stroke-opacity:1;paint-order:stroke fill markers"
           id="path198"
           d="m 725.53865,158.71157 c 5.09526,5.29233 11.85519,9.01559 18.77297,11.42568 3.12513,1.18854 6.45692,0.5353 9.67603,0.14966 9.0478,-1.55436 18.01411,-3.54826 26.9498,-5.64411 13.4048,-3.28944 26.7098,-6.96121 40.05148,-10.49421 11.51435,-3.15565 23.09989,-6.05078 34.89693,-7.9214 6.59192,-0.97563 13.25089,-1.70822 19.92246,-1.60068 2.81045,0.11076 5.60206,0.48064 8.40895,0.6392 1.34756,0.10288 2.69957,0.12199 4.04927,0.18741 0.28071,-0.0256 0.6202,0.097 0.88642,0.0223 0.73545,-4.00763 0.45002,-0.15514 -10.0396,-6.5455 -0.1148,-0.0699 0.0618,0.26227 0.10777,0.38861 0.3009,0.8278 0.43891,0.44975 -0.0152,1.00392 -0.24742,0.0531 -0.49485,0.10627 -0.74228,0.1594 0,0 0.4396,0.29451 0.4396,0.29451 v 0 c 0.24826,-0.0544 0.49651,-0.10877 0.74477,-0.16315 1.33598,-0.0211 0.36383,-0.0752 1.99979,0.28619 0.2508,0.0554 0.96414,0.28704 0.75909,0.13236 -18.02519,-13.5977 -8.87082,-3.16997 -9.53037,-6.83331 -0.24144,-0.0495 -0.50146,0.0305 -0.74819,0.0204 -1.23142,0.0443 -2.46248,0.009 -3.69396,-0.0153 -2.58663,-0.10873 -5.17821,-0.17785 -7.76588,-0.0601 -6.22982,0.38478 -12.34457,1.73957 -18.47016,2.86769 -4.20451,0.91141 -5.24292,1.08496 -9.47979,2.22169 -7.95503,2.13431 -15.76799,4.76677 -23.70561,6.96213 -13.379,3.69388 -26.79284,7.31249 -40.37036,10.21031 -9.44324,1.88292 -18.93055,3.75692 -28.56181,4.3363 -3.33087,0.1008 -6.7572,0.26885 -9.88599,-1.08345 -5.61945,-2.74977 -0.41974,-0.22575 13.49422,7.91685 0.2794,0.16351 -0.58604,-0.27962 -0.85748,-0.45603 -0.66368,-0.43133 -1.2604,-1.00804 -1.84945,-1.5315 z" />
        <path
           style="mix-blend-mode:lighten;fill:#ffffff;fill-opacity:1;stroke:none;stroke-width:60.6123;stroke-linecap:round;stroke-dasharray:none;stroke-opacity:1;paint-order:stroke fill markers"
           id="path200"
           d="m 783.92641,158.44041 c 0.43981,1.01101 0.89582,2.00247 1.51024,2.92227 0.47917,0.7369 0.98299,1.42527 1.33032,2.23536 0.49907,0.89926 0.46139,1.77585 0.38863,2.76658 -0.37842,1.94044 -1.22665,3.73519 -1.86327,5.59602 -1.38881,3.85152 -2.64622,7.75304 -3.87156,11.65999 -1.68737,5.17452 -3.75273,10.20874 -5.9805,15.17053 -2.77373,6.30298 -6.26849,12.23593 -9.65175,18.22207 -5.21783,8.59146 -10.64224,17.0562 -16.09657,25.49969 -6.857,10.1763 -14.2443,19.97346 -21.7062,29.70953 -3.33094,4.10793 -6.69549,8.19029 -9.96625,12.34673 -0.88025,1.1186 -1.78671,2.21852 -2.61141,3.37869 -1.11251,1.56505 -2.37453,3.76161 -3.37402,5.44919 1.61416,6.75213 0.44441,0.0855 0.3782,4.58324 -0.0106,0.72188 0.64192,1.88426 -0.0229,2.16576 -0.30271,0.12818 -0.65316,-0.0751 -0.97973,-0.11269 0,0 0.43181,0.30581 0.43181,0.30581 v 0 c 1.94382,0.20749 3.84595,0.89154 5.81078,0.92625 2.27741,0.0402 4.50365,-1.13517 6.82432,-0.35017 2.2908,-1.52306 3.55226,-2.2407 5.63619,-4.18334 1.0641,-0.99195 2.02762,-2.0873 3.00699,-3.16299 3.58042,-3.93255 6.8922,-8.09885 10.15153,-12.29761 7.6027,-9.67556 14.86227,-19.59814 21.90704,-29.6875 3.32321,-4.55638 6.72618,-9.07423 9.89585,-13.74031 0.87479,-1.28777 1.68309,-2.61969 2.54819,-3.91399 4.39823,-6.58031 0.94038,-1.08318 4.76801,-7.31333 3.64183,-5.90221 7.03757,-11.95943 9.83438,-18.31486 2.26353,-5.03108 4.29257,-10.15765 5.93168,-15.43023 1.12672,-3.96249 2.17763,-7.93914 3.50743,-11.84088 0.57737,-2.05212 1.28287,-4.0706 1.44545,-6.20971 0.0924,-1.34136 -0.0291,-2.65397 -0.72212,-3.84162 -0.30748,-0.45566 -0.52434,-0.95259 -0.82606,-1.41116 -0.49924,-0.75876 -0.18051,-0.19961 -0.78223,-0.86576 -0.15815,-0.17508 -0.28978,-0.3724 -0.43467,-0.5586 -1.02459,-1.06549 -2.04295,-2.15284 -2.89501,-3.36184 z" />
        <path
           style="mix-blend-mode:lighten;fill:#ffffff;fill-opacity:1;stroke:none;stroke-width:60.6123;stroke-linecap:round;stroke-dasharray:none;stroke-opacity:1;paint-order:stroke fill markers"
           id="path201"
           d="m 752.08755,247.51857 c 1.08102,1.11163 2.22895,2.14997 3.39443,3.17127 0.64743,0.63028 1.40534,1.2519 1.80186,2.07962 0.64284,0.99205 0.97976,2.16604 1.26503,3.30494 0.83594,3.00763 1.06613,6.11405 1.2078,9.21726 0.2441,7.46571 -0.76579,14.88797 -1.74689,22.26911 -1.34807,11.71643 -3.37424,23.33452 -5.35663,34.95526 -1.81744,9.94664 -4.19795,19.77622 -5.8138,29.75851 -0.67357,3.18317 -1.01657,6.42408 -0.91444,9.67781 0.0434,1.38244 0.0768,2.61374 0.71519,3.87003 0.25634,0.50441 0.67295,0.90977 1.00942,1.36466 0.15103,0.19156 0.21872,0.50704 0.45309,0.57467 0.26494,0.0764 0.53285,-0.14221 0.79927,-0.21331 2.28762,1.3459 4.47761,2.87356 6.86286,4.03771 0.58089,0.28351 -0.98568,-0.85005 -1.38039,-1.36193 -0.38812,-0.50331 -0.93133,-1.9756 -1.16455,-2.55861 -0.54121,-1.75625 -0.39045,-0.90114 -0.51208,-2.55407 0,0 -0.47037,-0.24236 -0.47037,-0.24236 v 0 c 0.11303,1.51472 0.23053,0.80621 -0.29214,2.13466 -0.1269,0.22863 -0.68228,1.33431 -0.98079,1.4691 -0.37344,0.16862 -1.53567,-0.14201 -1.22307,0.12288 5.09429,4.31676 4.88047,5.29002 8.93835,4.62131 0.45959,-0.0655 0.96187,0.008 1.37878,-0.19659 0.93186,-0.45648 1.30367,-1.79128 1.59535,-2.60806 1.03336,-2.89369 1.63564,-5.91418 2.16478,-8.93337 0.98181,-4.46802 1.81134,-8.94814 2.68351,-13.43774 1.05986,-5.45567 2.24659,-10.88877 3.05081,-16.39211 2.05454,-11.62281 3.44054,-23.34992 5.37876,-34.99295 1.15928,-7.42111 2.2139,-14.87571 2.11003,-22.40824 -0.15312,-3.36478 -0.48295,-6.77442 -1.71647,-9.93973 -0.58461,-1.50429 -1.43895,-2.82371 -2.18197,-4.23701 -0.70072,-0.69542 0.0806,0.14687 -0.54376,-0.78573 -0.36561,-0.54615 -0.89058,-0.93375 -1.35722,-1.37686 -0.18321,-0.17397 -0.34218,-0.37179 -0.51328,-0.55769 -1.26217,-1.02062 -2.60158,-1.95942 -3.68888,-3.17511 z" />
        <path
           style="mix-blend-mode:lighten;fill:#ffffff;fill-opacity:1;stroke:none;stroke-width:60.6123;stroke-linecap:round;stroke-dasharray:none;stroke-opacity:1;paint-order:stroke fill markers"
           id="path202"
           d="m 834.6598,182.12184 c -1.5207,-1.10374 3.37887,1.84967 1.76417,0.92317 -46.36021,-26.60109 34.06725,19.68747 -12.83348,-7.35216 0.9708,0.54749 1.5989,1.43777 2.21257,2.33672 0.56638,0.9897 0.754,2.15897 0.8072,3.28466 -0.2136,2.35543 -1.11041,4.62403 -1.85472,6.85403 -2.47678,7.46189 -5.84569,14.61032 -9.81963,21.38896 -1.16887,1.99384 -2.42768,3.93358 -3.64153,5.90036 -5.0404,8.02284 -10.65439,15.65535 -16.14819,23.36616 -1.28138,1.79847 -2.65369,3.53879 -3.8038,5.4239 -1.07118,1.75574 -1.89702,3.64986 -2.84553,5.47478 -1.44658,3.20659 -0.85545,6.97458 -2.06837,10.23812 -0.74731,2.01074 -1.94684,2.69388 -3.45487,3.88685 0,0 0.45004,0.27828 0.45004,0.27828 v 0 c 1.47822,-1.17066 2.88894,-2.39194 4.64608,-3.17368 3.80655,-1.6935 8.0701,-2.25002 11.6459,-4.53793 1.74364,-1.36263 3.60812,-2.58338 5.23092,-4.0879 1.65846,-1.53757 3.11159,-3.28559 4.57871,-5.00668 6.18393,-7.25441 11.34296,-15.30928 16.60936,-23.2291 5.57185,-8.58186 11.25658,-17.19682 15.29235,-26.63668 0.88428,-2.50542 1.75744,-5.03237 1.52071,-7.73146 -0.15653,-1.53137 -0.80782,-2.96985 -1.39254,-4.37976 -0.69066,-1.05233 -1.50946,-2.06101 -2.36278,-2.97776 -5.00686,-2.92197 -10.16347,-5.60124 -15.02056,-8.76592 -4.49261,-2.9272 18.6758,10.54025 13.9257,8.05256 -5.08241,-2.66172 -9.93986,-5.7326 -14.92343,-8.57508 -0.47728,-0.27223 -1.02443,-0.41975 -1.53714,-0.60637 z" />
        <path
           style="mix-blend-mode:lighten;fill:#ffffff;fill-opacity:1;stroke:none;stroke-width:60.6123;stroke-linecap:round;stroke-dasharray:none;stroke-opacity:1;paint-order:stroke fill markers"
           id="path203"
           d="m 830.17155,225.54583 c 1.48372,0.43223 2.93452,0.95188 4.45712,1.2738 1.4704,0.20746 2.9603,0.26249 4.44369,0.3001 1.67643,-0.007 3.361,0.1103 5.02683,-0.0945 1.99302,-0.13285 3.91349,-0.66441 5.85273,-1.09876 2.5284,-0.57698 5.03024,-1.24848 7.50631,-2.02188 2.83285,-0.96227 5.61336,-2.06018 8.37602,-3.20618 2.75069,-0.9716 5.36389,-2.2602 8.04491,-3.39849 1.88076,-0.9305 3.81819,-1.76745 5.66151,-2.77168 1.37469,-0.60355 2.6696,-1.36101 4.00953,-2.03097 1.48605,-0.74624 2.91174,-1.6156 4.4029,-2.35121 1.49129,-0.94398 3.05242,-1.73339 4.61185,-2.54974 1.10977,-0.73324 2.33708,-1.28913 3.42886,-2.04501 0.49773,-0.3558 1.08916,-0.60769 1.70243,-0.66698 0.31526,-0.0204 0.20308,0.13223 0.0581,0.32332 -14.68989,-10.87436 -11.92826,-14.6181 -18.07752,-7.83552 -2.57179,3.12721 -5.18536,6.21887 -7.71278,9.38375 -4.17831,5.21761 -7.9455,10.74283 -11.95408,16.08697 -4.23828,5.78152 -8.89703,11.21779 -13.53403,16.67565 -4.39301,5.30277 -8.66547,10.69946 -12.85938,16.16028 -5.20489,6.61307 -10.85558,12.86359 -16.54891,19.05643 -5.15409,5.69755 -10.49544,11.22164 -15.90561,16.67535 -5.21215,4.8509 -10.53091,9.64042 -16.2417,13.90587 -1.42502,1.06435 -2.89976,2.06045 -4.34965,3.09068 -1.4872,1.02054 -2.94998,2.07761 -4.46161,3.06161 -1.48696,0.96794 -7.14322,4.33481 -8.69764,5.40915 -5.46179,3.77492 -1.44295,1.34925 -6.31997,5.22537 -0.98007,0.77893 -2.05189,1.43486 -3.07784,2.15229 -5.52036,1.54548 -2.62976,1.05294 -8.68974,1.36809 0,0 0.43575,0.30016 0.43575,0.30016 v 0 c 6.56029,-0.34424 3.11267,-0.24054 10.34422,-0.262 3.79642,0.15093 9.85591,0.49085 13.64356,0.23903 2.11429,-0.14057 4.2281,-0.4042 6.30004,-0.84811 5.85605,-1.25467 11.16956,-4.11378 16.59951,-6.50107 8.33381,-4.52627 16.9305,-8.82244 23.86552,-15.43162 5.39797,-5.45283 10.376,-11.29003 15.44044,-17.04973 5.6348,-6.32052 11.34372,-12.57523 16.81316,-19.04107 4.3095,-5.34497 8.32199,-10.90771 11.94108,-16.74778 3.91938,-5.92549 7.83955,-11.85789 12.03297,-17.59411 3.81602,-5.45596 7.66478,-10.89337 11.68463,-16.20149 2.36557,-3.24992 4.95157,-6.31942 7.50441,-9.42267 5.28335,-6.76852 3.89414,-1.26958 -13.30041,-12.72747 -0.13341,0.16281 -0.24574,0.34495 -0.41978,0.46705 -0.4956,0.40146 -1.0685,0.70301 -1.55534,1.11764 -1.07269,0.6727 -2.12916,1.37381 -3.26067,1.94612 -1.60779,0.76908 -3.12383,1.71098 -4.74189,2.46148 -1.53451,0.76879 -3.13991,1.3781 -4.64126,2.21336 -1.34908,0.69563 -2.73863,1.31194 -4.05452,2.06967 -1.73727,0.99242 -3.48682,1.96862 -5.27674,2.86247 -2.60982,1.21637 -5.26496,2.34093 -7.95424,3.36998 -2.87457,1.02893 -5.7374,2.07304 -8.69596,2.83829 -2.52848,0.65642 -5.03337,1.40544 -7.61687,1.82956 -1.90454,0.39291 -3.80559,0.79943 -5.7512,0.93336 -1.61432,0.0605 -3.22878,0.0399 -4.84387,0.05 -1.2796,0.003 -2.56444,0.0228 -3.83254,-0.18031 -1.16952,-0.18564 -2.31514,-0.48659 -3.49969,-0.55222 z" />
        <path
           style="mix-blend-mode:lighten;fill:#ffffff;fill-opacity:1;stroke:none;stroke-width:60.6123;stroke-linecap:round;stroke-dasharray:none;stroke-opacity:1;paint-order:stroke fill markers"
           id="path204"
           d="m 826.23396,253.71734 c 0.21476,-0.0358 0.42683,-0.0966 0.64428,-0.10747 0.58779,-0.0294 1.17597,0.0778 1.76436,0.0653 1.00185,-0.0213 2.01293,-0.14165 3.01348,-0.20437 1.62871,-0.0852 3.26202,-0.12423 4.893,-0.10575 1.39791,0.0246 2.79595,0.0404 4.19334,0.0864 0.72757,0.33948 1.55369,0.32103 2.31139,0.52015 0.0409,0.0108 0.99899,0.39934 1.05744,0.42296 0.27158,0.33995 0.89222,0.1411 1.20212,0.36943 0.0875,0.0645 0.0788,0.20787 0.15122,0.28899 0.10367,0.11616 0.27358,0.14872 0.40996,0.22385 -0.0263,-0.0529 0.18036,0.0979 0.15049,0.0538 -0.0599,-0.0885 -0.14974,-0.15583 -0.24061,-0.21222 -14.90372,-9.24897 -19.81349,-11.41525 -13.07083,-8.33471 1.0375,0.82889 2.1799,1.57937 3.02304,2.62501 0.26302,0.32619 1.01493,2.02967 1.24852,2.44895 -0.0701,0.18254 -0.14027,0.36507 -0.21041,0.54761 0,0 0.46153,0.2588 0.46153,0.2588 v 0 c 0.0702,-0.18258 0.14032,-0.36516 0.21048,-0.54775 0.38847,-0.0533 2.02129,-0.43809 2.36988,-0.40662 1.3048,0.11777 2.40561,0.86438 3.71252,0.87899 0.52842,0.0808 2.02387,0.54809 1.58526,0.24251 -5.07922,-3.53872 -10.66084,-6.74185 -15.92497,-10.18937 -0.0413,-0.0233 -0.61037,-0.3451 -0.62085,-0.3478 -0.12303,-0.0317 -0.25538,0.0215 -0.3811,0.003 -0.38124,-0.0554 -0.70939,-0.34005 -1.10446,-0.3508 -1.13859,-0.24248 -2.31976,-0.45606 -3.48521,-0.41156 -1.31558,0.0467 -2.63226,0.0567 -3.94726,0.122 -1.57906,0.0787 -3.15568,0.15266 -4.72762,0.33434 -1.83848,0.16645 -3.68376,0.0968 -5.51192,0.36038 z" />
        <path
           style="mix-blend-mode:lighten;fill:#ffffff;fill-opacity:1;stroke:none;stroke-width:60.6123;stroke-linecap:round;stroke-dasharray:none;stroke-opacity:1;paint-order:stroke fill markers"
           id="path205"
           d="m 779.6312,278.5729 c 4.12825,-0.55718 8.30504,-0.67764 12.46567,-0.63441 5.6842,0.0246 11.23613,1.25095 16.74432,2.52219 6.41201,1.40184 12.48953,3.9053 18.52377,6.42605 7.44117,2.95589 14.62389,6.48515 21.76603,10.09023 7.84635,4.06134 15.18701,9.0137 22.33717,14.18175 7.608,5.56655 14.87749,11.56601 22.18635,17.5136 5.5751,4.71154 11.62562,8.96497 18.33695,11.91495 4.82684,2.12164 8.88377,3.24799 13.91658,4.83807 10.45352,1.38316 7.31072,1.08186 17.97727,2.02268 14.51952,-0.85164 15.98118,2.39423 4.00758,-2.64525 -3.95058,-1.66273 -6.46702,-4.62807 -9.84909,-7.2422 -9.79159,-5.5971 -19.3529,-11.62568 -27.87846,-19.0606 -7.22447,-6.04747 -14.48959,-12.04581 -22.00007,-17.73724 -7.1723,-5.29868 -14.56739,-10.39373 -22.59011,-14.33058 -7.20367,-3.58657 -14.47144,-7.03645 -21.90537,-10.12414 -6.15617,-2.60418 -12.40452,-5.09053 -18.97056,-6.46111 -5.76098,-1.24089 -11.57083,-2.41119 -17.49408,-2.37933 -4.22616,-0.0951 -8.45057,0.10045 -12.66056,0.48719 z"
           sodipodi:nodetypes="cccccccscssccccccccc" />
      </g>
    </g>
  </g>
</svg>
