<?xml version="1.0" encoding="UTF-8" standalone="no"?>
<!-- Created with Inkscape (http://www.inkscape.org/) -->

<svg
   width="1024"
   height="512"
   viewBox="0 0 1024 512"
   version="1.1"
   id="svg1"
   inkscape:version="1.4.2 (ebf0e940d0, 2025-05-08)"
   sodipodi:docname="midnight_long.svg"
   inkscape:export-filename="midnight_long.png"
   inkscape:export-xdpi="96"
   inkscape:export-ydpi="96"
   xmlns:inkscape="http://www.inkscape.org/namespaces/inkscape"
   xmlns:sodipodi="http://sodipodi.sourceforge.net/DTD/sodipodi-0.dtd"
   xmlns="http://www.w3.org/2000/svg"
   xmlns:svg="http://www.w3.org/2000/svg">
  <sodipodi:namedview
     id="namedview1"
     pagecolor="#ffffff"
     bordercolor="#000000"
     borderopacity="0.25"
     inkscape:showpageshadow="2"
     inkscape:pageopacity="0.0"
     inkscape:pagecheckerboard="0"
     inkscape:deskcolor="#d1d1d1"
     inkscape:document-units="px"
     inkscape:zoom="0.81738284"
     inkscape:cx="397.6105"
     inkscape:cy="229.39067"
     inkscape:window-width="1920"
     inkscape:window-height="1052"
     inkscape:window-x="0"
     inkscape:window-y="0"
     inkscape:window-maximized="1"
     inkscape:current-layer="layer1" />
  <defs
     id="defs1">
    <rect
       x="420.43199"
       y="145.33452"
       width="803.66527"
       height="328.73283"
       id="rect151" />
  </defs>
  <g
     inkscape:label="图层 1"
     inkscape:groupmode="layer"
     id="layer1">
    <path
       style="fill:#ffffff;fill-opacity:1;stroke-width:1.81205"
       d="M 246.64297,383.74925 C 215.01039,381.06932 185.78559,367.18787 164.16887,344.57496 140.97815,320.3155 128,288.08346 128,254.74734 c 0,-28.88655 9.49289,-56.58779 27.39751,-79.94871 3.84009,-5.01033 15.73908,-17.10815 20.86324,-21.21186 11.34322,-9.08426 25.31074,-16.74023 39.34833,-21.56785 4.32328,-1.4868 14.5525,-4.25337 14.80097,-4.00302 0.0716,0.0721 -1.92451,1.4117 -4.43569,2.97689 -21.38987,13.33207 -38.03892,34.42019 -46.49881,58.89659 -6.39384,18.49885 -7.92106,39.74103 -4.28672,59.62424 4.20924,23.02851 15.66369,44.5644 32.29478,60.7185 12.12634,11.77855 25.92469,20.24375 41.28077,25.32554 11.40691,3.77488 20.89984,5.27146 33.43719,5.27146 12.4183,0 22.10152,-1.54332 33.40878,-5.32475 22.86665,-7.64714 42.55593,-22.90004 56.27676,-43.5965 3.97143,-5.9905 9.1611,-15.82512 10.92115,-20.696 0.5586,-1.54593 1.08538,-2.60001 1.1706,-2.34239 0.23004,0.69533 -1.46712,10.82471 -2.67846,15.98611 -5.74435,24.47631 -19.78429,48.41106 -38.2984,65.28966 -20.07594,18.30246 -44.00791,29.43209 -70.85689,32.95221 -6.43913,0.84423 -19.33909,1.17392 -25.50214,0.65179 z"
       id="path7" />
    <path
       style="fill:#ffffff;fill-opacity:1;stroke-width:4.152"
       id="path18"
       d="m 61.613116,269.91043 c 2.378197,0.36933 4.726625,-0.62548 6.938099,-1.36053 7.996656,-2.76049 16.008014,-5.47561 24.075504,-8.02231 13.415471,-4.21122 26.938631,-8.06464 40.466641,-11.89442 18.25201,-4.99216 36.70599,-9.19779 55.23394,-13.0216 21.7076,-4.5306 43.60299,-8.02971 65.55066,-11.15281 22.14481,-3.12315 44.39342,-5.37747 66.63794,-7.64133 19.33341,-1.76885 38.65317,-3.70556 58.01495,-5.14269 11.83319,-0.89705 23.68273,-1.55404 35.52775,-2.27041 4.16121,-0.24552 8.32803,-0.48407 12.49794,-0.49369 0.0859,-0.0126 1.00089,0.0569 0.48262,-0.29233 -2.66072,-1.79297 -5.27957,-3.65264 -8.01156,-5.33502 -0.41393,-0.25491 0.74645,0.63818 1.02798,1.03449 0.0915,0.12872 0.0281,0.31455 0.0421,0.47183 0.21239,0.85428 0.34069,0.60071 -0.70569,0.47838 0,0 0.24667,0.17486 0.24667,0.17486 v 0 c 1.46928,0.17077 0.58645,-0.0108 2.57728,0.81791 0.43657,0.15546 0.88862,0.27289 1.30973,0.46638 0.66652,0.30625 2.52181,1.48234 1.94506,1.02912 -0.44269,-0.34787 -5.4178,-5.68613 -8.6517,-5.55861 -3.88329,0.38274 -7.77214,0.70998 -11.65356,1.11266 -11.37153,1.21367 -22.77255,2.11088 -34.15476,3.21466 -19.03234,1.89824 -38.06984,3.75086 -57.08766,5.78973 -22.22282,2.29255 -44.44616,4.60694 -66.57294,7.7161 -21.97907,3.15033 -43.88567,6.75899 -65.65947,11.12279 -18.7645,3.67856 -37.4294,7.83689 -55.95028,12.60122 -13.694,3.70493 -27.389481,7.42868 -40.950571,11.59818 -8.317803,2.47692 -16.580304,5.14797 -24.95574,7.42576 -2.248974,0.56361 -4.601867,1.38417 -6.93768,0.86696 z" />
    <path
       style="fill:#ffffff;fill-opacity:1;stroke-width:4.152"
       id="path30"
       d="m 223.76053,151.1254 c -0.95745,1.70776 -1.81339,3.45529 -2.50281,5.28886 -0.95009,2.44876 -1.57605,5.00271 -2.24335,7.53812 -0.87382,3.3958 -1.68623,6.80588 -2.51454,10.21269 -0.89547,3.65871 -1.64131,7.35179 -2.49738,11.01958 -0.70184,3.7503 -1.51255,7.47586 -1.92735,11.27152 -0.49659,4.26147 -0.85567,8.54884 -0.7654,12.8411 0.0607,1.14732 -0.25263,3.95448 0.75128,4.81258 1.01711,0.86937 3.58961,1.39336 4.46673,1.65304 -0.15707,-0.57616 -0.31413,-1.15233 -0.47119,-1.72849 0,0 -0.26795,-0.1401 -0.26795,-0.1401 v 0 c -0.15754,0.41177 -0.31508,0.82354 -0.47263,1.23531 0.16191,0.12414 3.20906,2.81244 4.47906,3.03848 0.99933,0.17786 0.90568,-3.3989 0.99495,-3.87271 0.46753,-4.14053 0.66662,-8.31449 1.38857,-12.4264 0.54448,-3.73627 1.25811,-7.44378 1.96925,-11.15147 0.78532,-3.68613 1.55946,-7.37524 2.43673,-11.04084 0.7755,-3.41627 1.57698,-6.82733 2.45844,-10.21772 0.65558,-2.53106 1.18971,-5.09825 2.02809,-7.57785 0.56629,-1.81242 1.33034,-3.5546 2.28736,-5.19714 z" />
    <path
       style="fill:#ffffff;fill-opacity:1;stroke-width:4.152"
       id="path31"
       d="m 224.73548,154.06566 c 1.42026,2.61642 2.28098,5.47714 3.24829,8.27886 1.67266,4.81868 3.27036,9.65523 4.622,14.57422 1.32191,4.69708 2.1566,9.5165 2.70462,14.36047 0.21545,2.70636 0.51854,5.40388 0.71736,8.11163 0.0648,1.35006 0.0877,2.70201 0.0921,4.05349 0.003,1.1059 -0.0422,2.21129 -0.054,3.31705 -0.0269,0.52051 -0.0314,1.04058 -0.036,1.56149 -0.0149,0.17361 -0.005,0.31647 0.0985,0.45197 13.6546,7.18231 9.68464,8.87654 11.12959,3.60541 0.60802,-2.03749 1.01156,-4.12657 1.55558,-6.18033 0.98798,-4.95296 1.82803,-9.92549 2.99857,-14.84069 1.85014,-6.88696 3.54657,-13.80761 5.062,-20.77542 0.6858,-3.22214 1.2463,-6.49087 2.29243,-9.62122 0.31363,-0.70423 0.59742,-1.54915 1.24028,-2.03451 -0.0354,0.0517 0.0768,-0.0671 0.0906,-0.0375 0.0229,0.0491 -0.0335,0.10402 -0.0612,0.1506 -0.0551,0.0927 -0.0791,0.32493 -0.17355,0.27296 -3.25193,-1.78876 -6.39739,-3.76458 -9.59609,-5.64688 0.51875,1.44759 0.78876,2.96748 1.06784,4.47708 0.7476,3.77344 1.39447,7.56268 1.96967,11.36585 0.64265,4.89969 1.26396,9.80379 1.70756,14.72599 0.34105,3.52306 0.70051,7.04214 1.10547,10.55831 0.18585,1.95196 0.46685,3.89895 0.91001,5.80963 0.27017,1.32162 0.59009,2.63192 0.88603,3.94766 0.23692,0.67414 0.23033,1.43906 0.52573,2.08833 0.39552,0.62902 1.11184,0.90446 1.75144,1.22613 10.99403,5.44519 4.35175,2.68099 3.00805,-0.004 -0.0983,-0.1964 -0.0881,-0.43031 -0.1322,-0.64546 0,0 -0.27018,-0.13575 -0.27018,-0.13575 v 0 c 0.20555,1.01048 0.14566,0.78523 -0.63117,1.24842 -2.39845,1.43009 1.60896,2.07103 5.3696,3.46053 0.52337,0.23397 1.1771,0.74875 1.74152,0.45471 0.31732,-0.57418 0.0182,-1.43467 -0.0277,-2.04384 -0.35819,-1.338 -0.75449,-2.66052 -1.01261,-4.02169 -0.54079,-1.91449 -0.94084,-3.86334 -1.2131,-5.83582 -0.57876,-3.58545 -1.17653,-7.16569 -1.59859,-10.77494 -0.59998,-4.97521 -1.29112,-9.9389 -1.96815,-14.90407 -0.56847,-3.82788 -1.24695,-7.6303 -2.02899,-11.42086 -0.24874,-1.50433 -0.39895,-3.12061 -0.94336,-4.53672 -3.04731,-1.91579 -8.15506,-9.50715 -10.16477,-5.46979 -0.3367,0.84484 -0.70552,1.67866 -0.95007,2.55721 -0.70156,3.32891 -0.97677,6.73336 -1.56526,10.08323 -1.24351,7.0269 -2.84808,13.98277 -4.87643,20.82703 -1.29998,4.75371 -2.53059,9.53578 -4.10016,14.20905 -0.60436,1.97872 -1.28274,3.93084 -2.1496,5.8113 -2.07244,5.37592 -2.41179,1.69013 10.04422,7.79621 0.12306,-0.0702 0.10864,-0.18275 0.0987,-0.34734 -0.004,-0.53164 -0.007,-1.06257 -0.0301,-1.59395 -0.006,-1.12591 -0.0408,-2.25151 -0.0437,-3.37744 -0.0112,-1.41358 -0.0333,-2.8283 -0.24153,-4.23016 -0.32898,-2.83268 -0.93279,-5.62279 -1.29628,-8.45084 -0.78265,-4.92598 -1.61672,-9.86079 -3.02189,-14.65428 -1.36163,-4.96588 -3.05122,-9.81325 -4.71129,-14.68494 -1.01766,-2.89088 -1.83088,-5.88174 -3.39029,-8.54485 z" />
    <path
       style="fill:#ffffff;fill-opacity:1;stroke-width:4.152"
       id="path32"
       d="m 270.433,154.93604 c 0.54693,0.87569 1.15668,1.70027 1.66169,2.60386 0.25626,0.48464 0.42558,0.86329 0.89057,1.16255 0.42281,0.23107 1.62019,0.89024 1.94022,1.03866 0.88428,0.41008 1.69108,0.49637 1.88172,1.56968 0,0 0.25454,0.16319 0.25454,0.16319 v 0 c 1.46886,0.1922 0.11222,-0.0701 1.81962,0.60593 1.07242,0.4246 2.18132,0.74449 3.21035,1.28574 0.11371,0.0252 0.225,0.0845 0.34114,0.0756 0.21483,-0.0164 -0.0545,-1.06619 -0.11468,-1.11386 -0.649,-0.99503 -1.32039,-1.98209 -2.15831,-2.83023 z" />
    <path
       style="fill:#ffffff;fill-opacity:1;stroke-width:4.152"
       id="path33"
       d="m 273.47139,172.79991 c 1.02266,1.70513 1.2533,3.63431 1.45342,5.57312 0.36666,3.98202 0.74032,7.96229 1.31838,11.91987 0.60271,3.49137 1.13635,7.00052 1.95811,10.44916 0.24805,0.66637 0.33838,1.73122 0.91813,2.24868 1.02387,0.91387 2.35109,1.39866 3.43884,2.22791 0.4445,0.48046 0.56922,0.47219 0.1436,0.3464 0,0 0.24287,0.18011 0.24287,0.18011 v 0 c 0.76621,0.35569 0.29506,0.12887 1.40127,0.7052 1.10821,0.47077 3.0998,1.38368 4.29297,1.3484 0.45403,-0.0134 0.18274,-1.68572 0.16844,-1.73051 -0.61591,-3.52327 -1.75073,-6.94783 -2.19657,-10.50875 -0.5854,-3.94319 -1.04152,-7.90088 -1.35224,-11.87559 -0.14777,-2.051 -0.30473,-4.10019 -1.36488,-5.91843 z" />
    <path
       style="fill:#ffffff;fill-opacity:1;stroke-width:4.152"
       id="path34"
       d="m 317.09164,180.10561 c -0.16922,-0.76305 -0.15015,-1.54505 -0.20692,-2.31953 -0.0216,-0.0868 -0.0306,-0.39288 -0.13676,-0.45241 -3.15014,-1.76561 -6.33775,-3.46399 -9.48198,-5.2401 -0.0722,-0.0408 -0.22064,-0.24067 -0.14836,-0.1999 3.07406,1.73371 6.11468,3.52606 9.17201,5.28909 -7.49196,-5.10706 -6.48309,-5.48645 -11.46484,-5.68224 -1.36451,-0.19247 -2.48753,0.0563 -3.6866,0.71636 -2.10775,1.22734 -3.64489,3.09365 -4.96234,5.10449 -1.71877,2.75687 -2.54832,5.84135 -3.10582,9.00554 -0.49636,3.03049 -0.52622,6.08391 -0.0273,9.10977 0.38031,1.53478 0.95716,3.36826 2.4287,4.23294 3.52551,2.07156 7.09788,4.06235 10.64682,6.09352 1.45378,0.41098 2.95975,-0.003 4.37433,-0.39029 1.61623,-0.47476 2.85067,-1.49274 3.98212,-2.70406 1.56538,-1.49194 2.79729,-3.26809 3.89756,-5.11748 1.28192,-2.44912 2.3605,-5.00687 3.29035,-7.60926 0.70024,-1.80773 1.11514,-3.67401 1.51255,-5.56228 0.37336,-1.61183 0.54761,-3.25599 0.88678,-4.87373 0.32874,-1.58932 0.44438,-3.20445 0.4893,-4.82306 0.0238,-1.90249 0.0323,-3.80505 0.023,-5.70767 0.0863,-1.97247 -0.13617,-3.93327 -0.3321,-5.89205 -0.10438,-1.73999 -0.22443,-3.46767 -0.49534,-5.19036 -0.23848,-1.86718 -0.72862,-3.68898 -1.09808,-5.53218 -0.19988,-1.33862 -0.40048,-2.6642 -0.71231,-3.9816 -0.13584,-0.89 -0.44235,-1.73503 -0.69728,-2.59423 -0.0489,-0.1545 -0.099,-0.31025 -0.0979,-0.46974 -11.35498,-6.14917 -10.47008,-7.9714 -10.45192,-1.32906 0.0351,3.20969 -0.0402,6.41843 -0.0851,9.62752 0.0266,2.85643 0.4582,5.68404 0.91132,8.49747 0.4734,2.37862 0.86302,4.77353 1.39518,7.14007 0.51426,1.88733 0.74379,3.8303 1.05674,5.75643 0.4065,1.87925 0.68163,3.7832 1.11142,5.65703 0.29158,1.47018 0.50269,2.95123 0.79781,4.42123 0.15915,1.40268 0.44113,2.78307 0.68678,4.17189 0.20365,1.05593 0.22034,2.12738 0.24351,3.19746 -0.11295,0.64716 0.16316,1.17582 0.35663,1.76285 0.20874,0.61149 0.24512,1.26739 0.25496,1.90878 0.0487,0.73381 0.24894,1.45014 0.42289,2.16311 0.13402,0.50604 0.4118,0.78755 0.82972,1.08696 1.24607,0.83742 2.72576,1.29481 3.95339,2.15888 0.33586,0.23639 0.57651,0.58511 0.86476,0.87767 -0.0925,0.12577 -0.18496,0.25154 -0.27744,0.37731 0,0 0.26051,0.15349 0.26051,0.15349 v 0 c 0.0926,-0.12592 0.18513,-0.25183 0.27769,-0.37775 1.84355,0.57795 3.54101,1.44789 5.31456,2.18825 0.57486,0.13211 0.66543,-0.0551 0.60759,-0.6173 -0.21614,-0.6382 -0.38568,-1.28879 -0.58545,-1.93118 -0.0137,-0.71103 0.0362,-1.42413 -0.0727,-2.13024 -0.0942,-0.36616 -0.162,-0.72636 -0.3806,-1.04531 -0.0406,-0.0592 -0.12644,-0.0876 -0.14831,-0.15592 -0.0361,-0.1127 -0.0101,-0.23644 -0.0151,-0.35466 -0.0368,-1.12586 -0.1363,-2.25277 -0.26279,-3.37156 -0.22668,-1.41578 -0.62743,-2.79361 -0.75481,-4.225 -0.25495,-1.50233 -0.64789,-2.97598 -0.84816,-4.49017 -0.41117,-1.87721 -0.8372,-3.7503 -1.21093,-5.63722 -0.31819,-1.99052 -0.59938,-3.99791 -1.19614,-5.92894 -0.68612,-2.3984 -1.17094,-4.84882 -1.79992,-7.26289 -0.55226,-2.79004 -1.07382,-5.58797 -1.17459,-8.43928 -0.0433,-3.23756 -0.11628,-6.47482 -0.0786,-9.71293 0.0241,-6.97502 0.61885,-3.41348 -10.46661,-9.14988 0.12269,0.12521 0.20078,0.30272 0.27242,0.47015 0.36007,0.81624 0.72448,1.66063 0.8664,2.54084 0.28402,1.34717 0.64572,2.6722 0.84772,4.03777 0.39783,1.79097 0.83874,3.57683 0.99426,5.41004 0.21168,1.72176 0.49175,3.42601 0.53073,5.1662 0.18642,1.94325 0.51688,3.87571 0.41453,5.836 -0.008,1.88574 0.0122,3.77221 -0.052,5.65716 -0.0641,1.5672 -0.13494,3.14035 -0.43495,4.68406 -0.313,1.63095 -0.45221,3.28328 -0.79907,4.9088 -0.40184,1.85685 -0.78322,3.71064 -1.36222,5.52487 -0.82937,2.56476 -1.74243,5.13852 -3.14468,7.45268 -1.16024,1.73247 -2.39901,3.44732 -3.93471,4.86951 -1.1255,1.06397 -2.34834,1.86429 -3.89712,2.1588 -1.39482,0.2775 -2.82779,0.45677 -4.14275,-0.2194 3.09617,1.8107 6.19504,3.6168 9.28851,5.43211 0.23387,0.13724 -0.48583,-0.24462 -0.70957,-0.39782 -1.14395,-0.78326 -1.78151,-1.93927 -2.14707,-3.25357 -0.68022,-2.92826 -0.70698,-5.93425 -0.2935,-8.91012 0.46596,-3.05887 1.2423,-6.04574 2.83373,-8.7343 1.2169,-1.89575 2.60946,-3.67987 4.67819,-4.69905 1.10029,-0.424 2.19547,-0.48126 3.36794,-0.41185 0.27874,0.0146 0.68716,0.0238 0.9675,0.0827 0.25702,0.054 0.42689,0.16622 0.6322,0.31196 -3.05323,-1.78049 -6.10647,-3.56098 -9.15971,-5.34147 3.15645,1.83566 6.29201,3.70771 9.46933,5.50699 0.071,0.0402 0.31497,0.0353 0.24466,-0.006 -2.97556,-1.75088 -6.00481,-3.40906 -8.99156,-5.14079 -0.26527,-0.15381 0.77245,0.17613 0.57526,0.15466 0.65915,0.37065 0.59832,1.7409 0.87885,2.37764 z" />
    <path
       style="fill:#ffffff;fill-opacity:1;stroke-width:4.152"
       id="path35"
       d="m 214.75937,258.5916 c -0.40768,-0.0679 -0.81537,-0.13589 -1.22305,-0.20384 0,0 0.24598,0.17583 0.24598,0.17583 v 0 c 0.40768,0.0679 0.81537,0.13589 1.22305,0.20384 z" />
    <path
       style="fill:#ffffff;fill-opacity:1;stroke-width:4.152"
       id="path36"
       d="m 202.10146,243.89463 c 0.19754,1.82785 0.37848,3.66195 0.57765,5.49299 0.16375,2.75744 0.44222,5.50566 0.63522,8.26097 0.21352,3.43208 0.48186,6.86238 0.77331,10.28899 0.37729,5.69116 0.73353,11.38288 1.14322,17.07218 0.1529,2.39159 0.34588,4.78413 0.6737,7.15908 0.10931,0.79185 0.29652,2.21385 0.65364,2.9893 0.18629,0.40452 0.49181,0.74262 0.73772,1.11394 1.82508,2.23142 1.10378,1.54221 6.47724,3.50015 0.35603,0.12973 -0.48352,-0.58824 -0.67137,-0.91732 -0.18161,-0.31818 -0.48028,-1.35119 -0.61262,-1.67778 -0.15715,-0.3878 -0.34538,-0.76228 -0.51807,-1.14342 -0.3052,-1.30896 -0.19629,-0.66652 -0.33993,-1.92504 0,0 -0.26922,-0.13764 -0.26922,-0.13764 v 0 c 0.13684,1.19386 0.13598,0.60917 0.019,1.75399 -0.10103,0.11522 -1.14129,1.54548 -1.20454,1.57287 -0.23323,0.10103 -0.97279,-0.0921 -0.76097,0.0484 5.38649,3.57226 3.78476,4.16188 6.14832,3.11839 0.16324,-0.15752 0.41497,-0.25837 0.48974,-0.47254 0.18845,-0.53972 -0.0539,-2.31678 -0.0942,-2.68809 -0.26023,-2.3948 -0.61697,-4.77922 -0.78784,-7.18358 -0.56007,-5.6608 -0.75647,-11.33061 -1.04664,-17.00928 -0.2047,-3.43621 -0.45146,-6.86418 -0.77273,-10.29072 -0.22195,-2.81902 -0.604,-5.62265 -0.87646,-8.43651 -0.27615,-1.91605 -0.59655,-3.82478 -0.91581,-5.73325 z" />
    <path
       style="fill:#ffffff;fill-opacity:1;stroke-width:4.152"
       id="path37"
       d="m 201.00389,245.63749 c 2.5825,1.57457 4.51232,3.98672 6.44759,6.26093 4.70314,5.91356 9.12594,12.04401 13.45694,18.23329 3.24254,4.84587 6.4682,9.69938 9.85816,14.44358 1.15985,1.61844 2.28428,3.26662 3.50372,4.84164 0.88211,0.89525 0.40156,0.85596 1.95877,-0.01 2.01135,1.23379 4.02271,2.46759 6.03406,3.70138 -0.52242,-0.33077 -1.06903,-0.62611 -1.56726,-0.99231 -0.54886,-0.40343 -1.04476,-0.87436 -1.56714,-1.31154 0,0 -0.27451,-0.12675 -0.27451,-0.12675 v 0 c -0.1061,0.15286 -0.14691,0.38616 -0.31831,0.45858 -0.22802,0.0963 -0.49503,-0.007 -0.74254,-0.0104 2.23045,1.44515 4.4609,2.89031 6.69135,4.33546 0.49095,-0.21796 0.96022,-0.49344 1.47286,-0.65387 0.007,-0.002 0.3055,0.41872 0.009,-0.0671 -1.41164,-1.66175 -2.80228,-3.34114 -4.12288,-5.07703 -3.70648,-4.81709 -7.27183,-9.73406 -10.6557,-14.78526 -4.32052,-6.08736 -8.67117,-12.1543 -13.11619,-18.1513 -1.82555,-2.31028 -3.68573,-4.65431 -6.05225,-6.44168 z" />
    <path
       style="fill:#ffffff;fill-opacity:1;stroke-width:4.152"
       id="path38"
       d="m 228.56866,238.51931 c 0.44365,1.12291 0.66458,2.31972 0.85338,3.5078 0.31088,1.94341 0.71127,3.87186 1.10404,5.80013 1.05947,4.36808 1.70258,8.81386 2.30868,13.26235 0.58901,4.11327 1.04727,8.24326 1.55636,12.36692 0.17466,1.67753 0.44213,3.34316 0.67136,5.01407 0.11119,1.28934 0.38108,2.55561 0.55003,3.83722 0.12908,0.97568 0.39114,1.92787 0.61929,2.88435 0.32481,1.01837 0.55943,2.05891 0.67711,3.12114 0.025,0.78325 0.18963,1.50217 0.47822,2.22522 0.26086,0.60468 0.87586,1.26885 1.55835,1.39524 0.49225,0.0912 1.0012,-0.009 1.5018,-0.0132 10.13751,5.80096 4.09778,2.84473 2.36236,1.34851 -0.17147,-0.14784 -0.2455,-0.38048 -0.36825,-0.57072 0,0 -0.27409,-0.12766 -0.27409,-0.12766 v 0 c 0.1227,0.19035 0.51248,0.39656 0.3681,0.57105 -0.0531,0.0641 -1.23168,-0.0613 -1.40224,-0.0775 1.72664,1.09092 3.45327,2.18184 5.1799,3.27276 0.54179,0.0168 1.08928,-0.0298 1.62538,0.0503 0.45033,0.0673 1.26744,0.77653 1.12142,-0.0958 -0.13977,-0.67429 -0.48658,-1.25984 -0.40676,-1.9703 -0.12314,-1.10428 -0.26184,-2.21435 -0.59823,-3.27804 -0.3092,-0.91563 -0.48393,-1.89177 -0.7408,-2.81673 -0.26342,-1.28244 -0.56738,-2.56754 -0.69344,-3.86939 -0.23915,-1.82331 -0.97531,-3.52461 -1.25213,-5.34328 -0.8646,-4.22622 -1.67702,-8.45877 -2.31851,-12.72633 -0.62909,-4.45768 -1.13848,-8.9522 -2.2599,-13.3204 -0.48879,-2.03996 -0.99546,-4.07232 -1.57036,-6.09013 -0.49955,-1.27638 -0.81455,-2.60883 -1.37385,-3.86161 z" />
    <path
       style="fill:#ffffff;fill-opacity:1;stroke-width:4.152"
       id="path39"
       d="m 248.37235,242.73128 c 0.6179,1.01012 1.21596,2.03607 1.76818,3.0841 0.26211,0.54863 0.41185,1.13234 0.46854,1.7355 0.0721,0.36506 -0.002,0.76764 0.1355,1.1163 0.14297,0.35018 0.59397,0.49451 0.90879,0.65498 0.52554,0.21495 3.33621,1.13996 3.55689,2.16692 -0.0348,0.0557 -0.0696,0.11132 -0.10435,0.16698 0,0 0.25237,0.16653 0.25237,0.16653 v 0 c 0.12091,0.007 0.24182,0.0145 0.36273,0.0217 0.8147,0.30822 1.4788,0.8936 2.27605,1.21774 0.72692,0.29553 1.4704,0.54863 2.2033,0.82902 0.10613,0.0406 0.20901,0.0892 0.31351,0.13384 0.21667,0.1006 0.72197,0.48162 0.92256,0.25533 0.19678,-0.28096 0.0741,-0.75232 0.12909,-1.07496 -0.0308,-0.72866 -0.13109,-1.46128 -0.43902,-2.13132 -0.48204,-1.13155 -1.26453,-2.0885 -1.78705,-3.20001 z" />
    <path
       style="fill:#ffffff;fill-opacity:1;stroke-width:4.152"
       id="path40"
       d="m 258.95495,265.04837 c 0.8809,-0.41532 1.60818,-1.15636 2.53076,-1.48406 0.18003,-0.11901 0.35275,-0.14736 0.55871,-0.12973 0.011,0.006 0.022,0.0122 0.033,0.0183 -3.36109,-1.73834 -6.72217,-3.47667 -10.08325,-5.21501 0.14984,0.16002 0.27927,0.24966 0.36703,0.4599 0.0981,0.45237 0.14872,0.88977 0.35644,1.31546 0.18675,0.73461 0.384,1.47233 0.57233,2.21189 0.221,1.04778 0.22121,2.12027 0.25288,3.18549 -0.0801,1.3679 0.12136,2.7201 0.30335,4.07123 0.1051,1.3273 0.22769,2.64097 0.44067,3.95579 0.12368,1.22021 0.41283,2.41021 0.62852,3.61492 0.16416,0.98907 0.20429,1.98007 0.43644,2.95741 0.21798,0.80755 0.25155,1.64409 0.28677,2.47466 7.5e-4,0.71611 -0.001,1.43275 -0.0144,2.1488 -0.0722,0.68458 0.12811,1.28072 0.39026,1.89608 0.13096,0.40119 0.1906,0.81203 0.23191,1.22974 0.0506,0.53614 0.0149,0.9771 0.37155,1.41727 0.28444,0.41087 0.54529,0.85565 0.95007,1.15769 1.90035,1.06204 4.13165,2.20328 6.10078,2.75065 0.38545,0.10714 -0.58152,-0.56448 -0.78125,-0.91113 -0.10964,-0.19028 -0.0782,-0.4322 -0.11727,-0.64831 0,0 -0.26796,-0.14007 -0.26796,-0.14007 v 0 c -0.0388,0.17536 0.0313,0.42409 -0.1165,0.52607 -0.21597,0.14898 -0.99431,-0.0601 -0.78155,0.0934 1.60571,1.15876 3.96364,2.53321 6.05325,3.3052 0.33992,0.0346 0.33287,-0.37858 0.32585,-0.6414 -0.003,-0.5287 -0.37275,-0.26785 -0.18984,-0.92594 0.002,-0.4722 -0.005,-0.94671 -0.10162,-1.41017 -0.081,-0.60506 -0.46136,-1.06012 -0.48887,-1.64366 -0.0105,-0.74698 -0.01,-1.49346 -0.0557,-2.23976 -0.0432,-0.92509 -0.15586,-1.84218 -0.35751,-2.74687 -0.11613,-0.42977 -0.34116,-0.86482 -0.43543,-1.29358 -0.12148,-0.55253 -0.0582,-1.15419 -0.19489,-1.70675 -0.27755,-1.21523 -0.61798,-2.41466 -0.75951,-3.65516 -0.26202,-1.31978 -0.52592,-2.62422 -0.57702,-3.97472 -0.17897,-1.33782 -0.52073,-2.65688 -0.45037,-4.01785 -0.004,-1.13282 -0.022,-2.282 -0.2366,-3.3966 -0.15894,-0.83412 -0.54469,-1.56088 -0.62768,-2.40076 -0.16483,-0.51434 -0.61486,-0.82882 -0.58057,-1.39648 -1.34153,-4.26864 -4.24981,-3.22158 -10.68485,-6.36166 0.0738,0.16644 0.0761,0.28287 -0.0244,0.45333 -0.19581,0.83732 -0.92474,1.4769 -1.22696,2.27368 z" />
    <path
       style="fill:#ffffff;fill-opacity:1;stroke-width:4.152"
       id="path41"
       d="m 296.56714,263.46357 c -0.37055,-0.95424 -0.87536,-1.8357 -1.49082,-2.65037 -2.93197,-3.18376 -6.98192,-6.12047 -11.34404,-6.46307 -0.52035,0.028 -1.04161,0.042 -1.56282,0.0427 -0.67872,-0.0637 -1.25501,0.30141 -1.89719,0.48018 -0.6698,0.0445 -1.22538,0.41461 -1.85989,0.60959 -0.61608,0.36412 -1.25656,0.67748 -1.90465,0.97661 -0.82526,0.36806 -1.52444,1.00678 -2.19688,1.60562 -1.17524,1.19061 -2.08211,2.57785 -2.80306,4.07892 -1.02889,2.52737 -1.72233,5.1886 -2.31268,7.84967 -0.41711,1.40801 -0.49473,2.82113 -0.31703,4.26688 0.0926,0.98877 0.45752,1.92827 0.80568,2.85124 0.47845,1.32778 1.04457,2.61591 1.73732,3.84558 0.63014,1.11839 1.3597,2.17058 2.15648,3.17522 0.46182,0.59596 0.97894,1.11829 1.63828,1.492 10.93692,6.1991 6.81162,5.1377 11.49607,6.27101 1.39431,0.26026 2.52251,0.47031 3.8746,-0.0318 1.23296,-0.37089 2.32932,-1.0312 3.41151,-1.71236 1.31175,-0.89385 2.44769,-2.01056 3.57636,-3.11872 1.20389,-1.15267 1.94149,-2.60161 2.66961,-4.07196 0.6716,-1.30962 0.96644,-2.75354 1.27827,-4.17915 0.30567,-1.45524 0.53324,-2.93257 0.73365,-4.40722 0.22584,-2.37909 0.2173,-4.77508 0.28739,-7.16296 0.0447,-1.59463 0.0871,-3.18895 0.15745,-4.78261 -5.8e-4,-0.60411 0.17688,-1.2214 0.006,-1.81276 -3.35835,-1.90969 -6.70795,-3.83482 -10.07503,-5.72905 -0.34414,-0.19361 -0.63522,0.50933 -0.72166,0.64891 0.0983,-0.14004 -0.3182,0.60583 -0.23335,0.45724 0.19867,-0.34788 0.18324,-0.43583 0.18777,-0.23959 -0.008,0.31496 -0.0582,0.62586 -0.094,0.93837 -0.0513,1.72086 -0.0208,3.44373 -0.0106,5.16528 0.16176,2.90454 0.38204,5.8014 0.45003,8.71074 -0.008,2.85552 0.005,5.70492 0.19646,8.55462 0.1944,2.2532 0.27395,4.51137 0.29653,6.77178 0.0144,0.9832 -0.0186,1.96597 -0.008,2.94913 -0.0183,0.99328 -0.004,1.98719 0.018,2.98029 0.0387,1.79 0.30068,3.56733 0.4575,5.3507 0.11601,1.50399 0.1561,3.01282 0.16385,4.52087 -0.0283,0.73636 -0.0169,1.47595 -0.089,2.21004 -0.0229,0.27117 0.0354,0.61443 -0.067,0.77814 -0.22817,0.31264 -0.3505,0.69715 -0.47886,1.06057 -0.0904,0.37175 0.0508,0.38625 -0.28802,0.68825 -0.38187,0.47752 -0.74018,0.99109 -1.23984,1.35651 -0.454,0.24175 -0.83524,0.56114 -1.33787,0.74471 -0.30131,0.0737 -0.63999,0.0239 -0.95542,0.0177 -0.46549,0.002 -0.93064,-0.006 -1.3961,0.005 -0.59132,-0.12883 -0.95612,0.38604 -1.48647,0.52547 -0.37068,0.12329 -0.76213,0.10825 -1.14831,0.0988 -0.40032,-0.002 -0.8008,-0.017 -1.20108,-0.01 -0.43097,0.0145 -0.86234,-0.009 -1.29315,0.002 -0.49511,0.0107 -0.99083,0.0128 -1.48606,0.004 -0.3173,-10e-4 -0.63443,-1.2e-4 -0.95177,-0.008 -0.27892,0.007 -0.5578,0.01 -0.8368,0.0155 -0.28834,-0.002 -0.57619,0.0117 -0.8646,0.008 -0.007,3.1e-4 -0.32053,0.0143 -0.32375,0.01 -0.0502,-0.0681 -0.0927,-0.29419 -0.0188,-0.25307 3.53144,1.96444 6.98114,4.07256 10.48963,6.0777 0.0657,0.0376 -0.086,-0.13109 -0.15132,-0.16925 -3.58087,-2.0912 -7.18511,-4.14213 -10.77766,-6.2132 -0.21251,-0.18854 -0.57655,0.0684 -0.80061,-0.0681 -0.12583,-0.0767 -0.1893,-0.22822 -0.30339,-0.32145 -0.0854,-0.019 -0.17634,-0.0213 -0.25621,-0.057 -0.20349,-0.091 -0.75778,-0.4697 -0.56467,-0.35833 17.59926,10.14973 12.72742,7.71578 9.40833,5.37141 -1.02429,-0.66837 -1.72336,-1.72094 -2.42267,-2.70331 -3.75449,-4.41984 1.14418,1.44135 -2.15932,-2.79961 -1.00869,-1.29493 -1.90718,-1.91781 -2.42565,-3.47381 -0.12668,-0.38018 -0.0567,-0.79944 -0.0851,-1.19916 0,0 -0.26874,-0.13856 -0.26874,-0.13856 v 0 c 0.17857,2.52429 -0.0777,1.57152 -1.85183,2.46165 -3.24171,1.62646 2.19552,-0.44809 -1.56547,0.90071 -1.02345,0.98109 -0.9204,1.14393 -0.26174,2.17828 3.66446,3.01252 8.07141,4.99853 12.23899,7.21538 0.41267,0.14313 0.83784,0.073 1.16567,0.4291 -3.47915,-2.0101 -6.96862,-4.00243 -10.43745,-6.03029 -0.0541,-0.0316 0.13021,0.005 0.18446,0.0364 3.58894,2.07572 7.11915,4.25345 10.73623,6.27971 0.0843,0.0472 0.48214,-0.2238 0.63553,-0.0968 0.29651,-0.003 0.59252,0.0103 0.88897,0.008 0.29386,0.006 0.58756,0.008 0.88136,0.0155 0.30974,-0.008 0.61928,-0.006 0.92899,-0.008 0.49907,-0.009 0.99865,-0.006 1.49761,0.005 0.43402,0.0112 0.8686,-0.01 1.30273,0.007 0.41415,0.009 0.82963,0.003 1.24248,-0.0326 0.46035,-0.056 0.90479,-0.16794 1.3245,-0.37113 0.44951,-0.22577 0.77481,-0.26103 1.27448,-0.20581 0.48953,0.0144 0.97889,0.0162 1.46859,0.009 0.4307,-0.0293 0.84276,-0.0996 1.21903,-0.32761 0.52201,-0.28169 1.00135,-0.62562 1.51519,-0.91882 0.51078,-0.42432 0.91425,-0.94674 1.39789,-1.4012 0.28281,-0.29493 0.71587,-0.62209 0.68302,-1.07037 0.0556,-0.29366 0.13297,-0.58665 0.31748,-0.82811 0.27142,-0.45601 0.35093,-0.76871 0.28608,-1.29297 -0.0633,-0.77269 -0.0569,-1.54912 -0.0963,-2.32311 -0.0244,-1.53619 -0.0518,-3.07287 -0.1708,-4.60543 -0.13313,-1.74728 -0.41644,-3.48935 -0.42732,-5.24125 0.0239,-0.98596 0.0398,-1.97272 0.0251,-2.95894 0.0107,-1.01503 -0.0392,-2.02842 -0.0917,-3.04192 -0.14293,-2.30679 -0.32904,-4.61121 -0.4981,-6.91619 -0.22241,-2.86866 -0.22607,-5.73943 -0.37872,-8.61226 -0.15815,-2.90862 -0.33084,-5.81633 -0.55136,-8.72084 0.0105,-1.72486 0.0408,-3.45092 -0.009,-5.17515 -0.037,-0.3646 -0.0819,-0.72778 -0.10615,-1.09349 -0.0272,-0.44449 0.34856,-0.95595 -0.12124,-0.18879 -0.0883,0.13841 -0.17667,0.27682 -0.26501,0.41523 -0.0366,0.052 -0.0755,0.10247 -0.10981,0.15607 -0.026,0.0407 0.10752,0.15348 0.0656,0.12931 -3.24337,-1.87222 -6.4875,-3.74314 -9.73126,-5.61471 0.84854,-0.10989 0.44774,0.48532 0.56801,1.14906 0.0738,1.63597 0.11755,3.27276 0.12003,4.91063 -0.005,2.32608 -0.043,4.65912 -0.4056,6.96235 -0.2506,1.43722 -0.54678,2.86258 -0.77765,4.30274 -0.34279,1.33916 -0.62109,2.70985 -1.24576,3.95414 -0.70446,1.3665 -1.43672,2.70014 -2.58469,3.75775 -1.137,1.03555 -2.2916,2.07077 -3.63178,2.84076 -1.06977,0.58805 -2.14529,1.15557 -3.3435,1.44003 -1.24349,0.15395 -2.4907,-0.0909 -3.67758,-0.47166 -4.09186,-1.65474 -0.7903,-0.35458 9.01335,5.34141 0.71664,0.41637 -2.5839,-1.30474 -1.70514,-1.16407 -0.81324,-0.9458 -1.58953,-1.93035 -2.17087,-3.0398 -0.78312,-1.14522 -1.41328,-2.3747 -1.86946,-3.68737 -0.31196,-0.8952 -0.67298,-1.77835 -0.90721,-2.69201 -0.25529,-1.3958 -0.51599,-2.73471 -0.16295,-4.15653 0.42177,-2.63335 1.01348,-5.25542 2.07946,-7.71089 0.65313,-1.39318 1.45308,-2.69527 2.59143,-3.75182 0.65523,-0.5252 1.33438,-1.03705 2.11147,-1.36927 0.63433,-0.2957 1.27164,-0.59205 1.91328,-0.86632 0.599,-0.23838 1.1847,-0.46156 1.8166,-0.59981 0.57529,-0.20223 1.09413,-0.34738 1.71291,-0.27676 0.48744,-0.009 0.9913,-0.0319 1.46414,0.10325 4.59419,1.47614 -13.5852,-7.58603 -8.36621,-4.93832 0.65196,0.70826 1.31807,1.4683 1.62299,2.39515 z" />
    <path
       style="fill:#ffffff;fill-opacity:1;stroke-width:4.152"
       id="path42"
       d="m 305.51714,229.75881 c 2.16536,2.78532 2.76203,6.36133 3.33532,9.74752 0.7024,5.10443 0.73835,10.26593 0.75035,15.40862 -0.0539,4.29588 0.11108,8.58976 0.19855,12.88409 0.0715,2.13478 0.0248,4.27011 0.0191,6.40522 -0.029,0.86226 -0.0372,1.72468 -0.0563,2.5871 -0.0277,0.56888 0.21897,1.09043 0.42054,1.60901 0.24766,0.26967 0.23174,0.74561 0.25862,1.09492 0.29735,4.24061 11.66684,10.53189 10.99605,5.90567 0.15106,-2.31873 0.50571,-4.61911 0.80651,-6.92186 0.38478,-3.50853 0.79291,-7.01325 1.22388,-10.51662 0.23849,-1.623 0.46787,-3.33274 1.29593,-4.78371 0.40315,-0.70643 0.80549,-1.11782 1.32993,-1.7305 1.30029,-1.33759 2.88509,-2.32494 4.42289,-3.35638 1.00874,-0.80493 2.19977,-1.32811 3.25841,-2.05239 0.90281,-0.64995 1.85442,-1.02915 2.9436,-1.21786 1.21831,-0.26997 2.36322,0.01 3.55617,0.23135 0.21012,0.032 0.42349,0.0472 0.63035,0.096 0.49835,0.11753 0.73631,0.25116 1.19111,0.48307 0.18121,0.0924 0.71531,0.38758 0.53886,0.28638 -9.99822,-5.73453 -12.70976,-7.73361 -9.30206,-5.24991 0.85015,0.70923 1.06296,1.72093 1.17852,2.76853 0.0816,1.21512 0.0168,2.43298 0.0133,3.64927 0.01,1.18927 -0.0612,2.37672 -0.0917,3.56484 -0.0321,1.26121 0.25491,2.50591 0.3875,3.75764 0.1642,1.45006 0.13578,2.88792 -0.0932,4.32639 -0.13346,0.95674 -0.37129,1.89691 -0.37271,2.8657 0.0755,0.67742 0.28594,1.3279 0.38863,2.00113 0.0967,0.53325 0.0966,1.07241 0.21963,1.60083 0.23566,0.7106 0.28677,1.46377 0.47082,2.18506 0.31413,0.81757 0.94748,0.52619 1.68961,0.87861 1.06671,0.50654 2.18423,1.45401 3.1164,2.18593 0.19496,0.29911 0.26509,0.25187 -0.002,0.25364 0,0 0.24839,0.1724 0.24839,0.1724 v 0 c 0.36827,-0.004 0.11599,-0.0237 0.72118,0.23743 0.91885,0.53625 2.92581,1.754 3.86919,2.09354 0.41408,0.14904 0.87395,0.10452 1.31043,0.16078 0.23043,0.0297 0.35878,0.0934 0.44359,-0.1595 0.0255,-0.76954 -0.17728,-1.53119 -0.32088,-2.2813 -0.0627,-0.19997 -0.18857,-0.3778 -0.24105,-0.5807 -0.0754,-0.29139 0.0815,-0.6394 -0.0398,-0.92987 -0.11789,-0.68499 -0.22583,-1.37513 -0.49772,-2.02031 -0.28875,-0.85114 0.0513,-1.82258 0.10254,-2.69338 0.20147,-1.53166 0.3687,-3.04295 0.12599,-4.58577 -0.11726,-1.24294 -0.35632,-2.46501 -0.4953,-3.6986 -0.0247,-1.21504 -0.0846,-2.42976 -0.0652,-3.64567 0.005,-1.27536 -0.0249,-2.55231 -0.12116,-3.82431 -0.12459,-1.23262 -0.28143,-2.49208 -1.06658,-3.50259 -3.48007,-3.60742 -8.39246,-6.36985 -13.392,-7.14452 -1.21576,-0.15651 -2.42215,-0.16573 -3.61392,0.17576 -1.08908,0.34618 -2.04332,0.90255 -2.93108,1.62319 -1.01806,0.73217 -2.10437,1.36968 -3.08925,2.14995 -1.56225,1.1042 -3.1174,2.22382 -4.42149,3.63838 -0.56211,0.69489 -0.98249,1.15254 -1.41645,1.94664 -0.84719,1.55024 -1.09891,3.33829 -1.35896,5.05769 -0.37215,3.46726 -0.71199,6.94759 -1.37938,10.3721 -0.49137,2.15279 -0.9173,4.33254 -1.71779,6.39759 -1.9393,4.18375 10.38626,10.48026 10.85313,5.7227 0.0233,-0.47588 0.0569,-0.94942 0.0322,-1.4257 -0.20997,-0.38937 -0.33219,-0.8219 -0.57667,-1.18912 -0.0158,-0.88738 -0.0197,-1.77484 -0.0619,-2.66165 -0.0454,-2.19637 -0.19335,-4.38932 -0.29078,-6.58373 -0.27413,-4.3665 -0.68778,-8.73009 -0.69501,-13.10821 -0.0996,-5.2155 -0.13003,-10.45724 -0.86443,-15.63107 -0.5721,-3.48708 -1.15365,-7.08531 -3.04762,-10.14031 z" />
    <path
       style="fill:#ffffff;fill-opacity:1;stroke-width:4.152"
       id="path44"
       d="m 354.65702,255.0051 c 1.13767,0.18521 2.30711,-1e-4 3.45549,-0.0523 1.61723,-0.22816 3.22163,-0.52242 4.77913,-1.0182 2.32776,-0.76226 4.6556,-1.52989 7.00149,-2.24419 2.20467,-0.71882 4.4142,-1.39675 6.68816,-1.85744 0.0558,-0.0111 0.66056,-0.10688 0.78247,-0.19967 0.15797,-0.12024 -0.0628,-0.31662 -0.0976,-0.38877 -0.0927,-0.19202 -0.0732,-0.47097 -0.25127,-0.58829 -2.21977,-1.46251 -4.56466,-2.72564 -6.84699,-4.08846 0.32422,0.45638 0.77063,0.78957 1.02501,1.29885 0.0253,0.0507 -0.027,0.11327 -0.0176,0.16917 0.0172,0.10194 0.064,0.1966 0.096,0.29491 -0.31428,0.12782 -0.12126,0.088 -0.59119,0.006 0,0 0.24588,0.17597 0.24588,0.17597 v 0 c 0.59622,0.10311 0.27362,0.0286 0.96216,0.2465 1.33334,0.518 2.66518,1.02454 3.9101,1.74012 -2.16593,-1.35968 -4.38929,-2.63189 -6.49779,-4.07903 -0.16919,-0.11612 -0.13403,-0.39574 -0.25907,-0.55844 -0.34109,-0.44382 -1.09324,-0.15685 -1.48933,-0.0236 -2.09329,0.73674 -4.17658,1.51039 -6.30711,2.13343 -2.43579,0.70575 -4.8856,1.35838 -7.33574,2.01225 -1.56604,0.39656 -3.15124,0.71034 -4.76941,0.79044 -1.15122,0.0729 -2.30362,0.14462 -3.42456,-0.19548 z" />
    <path
       style="fill:#ffffff;fill-opacity:1;stroke-width:4.152"
       id="path45"
       d="m 358.48475,231.22543 c -0.16108,0.97998 -0.28091,1.96437 -0.5029,2.93321 -0.28677,1.03793 -0.37882,2.11553 -0.52966,3.17879 -0.2355,1.30483 -0.34596,2.62324 -0.41156,3.94565 -0.017,1.31007 -0.14471,2.60686 -0.28521,3.90756 -0.11028,1.42132 -0.1631,2.8495 -0.3849,4.2589 -0.19001,0.95108 -0.28097,1.9152 -0.37833,2.87853 -0.0333,0.77051 -0.0377,1.54184 -0.065,2.31244 0.01,0.61022 0.18178,1.20389 0.31223,1.79703 0.093,0.539 0.13535,1.08324 0.13076,1.62989 0.0116,0.67119 0.004,1.34145 -0.0136,2.01228 -0.0686,0.71338 0.14175,1.38713 0.29824,2.07323 0.21664,0.56696 0.29048,1.18762 0.51847,1.74685 0.11986,0.34506 0.3083,0.65503 0.36955,1.01788 -0.035,0.44402 0.12308,0.80153 0.25682,1.21122 0.1804,0.46821 0.1823,0.9769 0.32908,1.45257 0.16477,0.27953 0.16355,0.64854 0.37823,0.90367 0.16437,0.12292 0.0938,0.0538 0.21479,0.20401 0.1571,0.15912 0.0189,0.22648 0.0881,0.43351 0.003,0.0104 0.24617,0.18387 0.27832,0.22038 0.0359,0.0109 0.0878,9e-4 0.10782,0.0326 0.0412,0.0653 0.0207,0.15585 0.055,0.22498 0.11945,0.2403 0.33833,0.50095 0.48528,0.73327 0.16437,0.38881 0.49934,0.60076 0.77236,0.91148 0.23309,0.40962 0.60194,0.5983 0.97941,0.85045 5.76077,3.77091 6.67034,5.85786 11.02667,5.91747 0.0624,0.0741 0.19329,-0.0802 0.25063,-0.0191 0.0435,0.0463 -0.009,0.13584 0.0257,0.18877 0.0561,0.0846 0.35236,0.16754 0.44685,0.21249 0.22875,0.0765 0.51052,0.049 0.76259,0.0559 0.51649,-0.11255 0.35621,0.14225 0.73529,-0.42685 -0.0837,0.24236 0.19871,-0.42646 0.15049,-0.31918 -0.0749,0.16672 -0.0661,0.16406 0.08,0.15892 0.0591,0.008 0.12395,-0.003 0.0316,0.0208 -0.89358,-0.58868 -1.68031,-1.54321 -2.45413,-2.31028 0.0101,-0.12163 0.0201,-0.24326 0.0302,-0.3649 -0.0636,-0.178 -0.18789,-0.345 -0.19077,-0.53399 -7.4e-4,-0.0484 0.32381,-0.62361 0.37094,-0.66252 0.10478,-0.0865 0.25016,-0.1062 0.37524,-0.15931 0,0 -0.2535,-0.16481 -0.2535,-0.16481 v 0 c -1.14882,0.44657 -2.27272,0.0302 -3.42883,-0.1824 -0.46872,-0.21904 -0.95068,-0.41173 -1.40617,-0.65711 -0.81674,-0.43998 -1.60943,-1.18975 -2.53325,-1.41075 -0.1102,0.0227 -0.20672,0.0487 -0.2956,0.12435 -0.0641,0.0462 -0.71097,0.63844 -0.44711,0.50814 0.28879,-0.48355 0.0718,-0.19074 -0.2405,-0.33867 -0.21801,-0.053 -0.38849,-0.14457 -0.56868,-0.26953 -0.11986,-0.0517 -0.35455,-0.2054 -0.48131,-0.20262 -0.17318,0.004 -0.27192,0.13232 -0.44988,0.0395 -0.24562,-0.0532 -0.45093,-0.17528 -0.65773,-0.31658 3.26781,1.89416 6.53561,3.78833 9.80341,5.68249 -0.1666,-0.11793 -0.33707,-0.28118 -0.51475,-0.37823 -0.11052,-0.0604 -0.256,-0.0324 -0.36593,-0.0939 -0.0535,-0.0299 -0.0815,-0.0914 -0.12228,-0.13717 -0.14011,-0.15934 -0.28896,-0.49085 -0.455,-0.60405 -0.053,-0.0361 -0.13465,4.6e-4 -0.18953,-0.0327 -0.0571,-0.0345 -0.083,-0.10463 -0.12444,-0.15695 -0.0872,-0.11316 -0.1892,-0.21564 -0.26522,-0.33656 -0.0724,-0.11515 -0.0692,-0.2736 -0.1589,-0.3758 -0.03,-0.0342 -0.11047,0.003 -0.13093,-0.038 -0.034,-0.0674 -0.002,-0.15093 -0.002,-0.2264 -0.0243,-0.0388 -0.12588,-0.19897 -0.14255,-0.23372 -0.0232,-0.0483 -0.004,-0.14348 -0.0575,-0.15021 -0.0679,-0.009 -0.0967,0.11988 -0.16508,0.12203 -0.0916,0.003 0.0299,-0.29075 -0.0842,-0.2617 -0.0425,-0.12846 -0.0488,-0.27258 -0.11959,-0.38788 -0.14565,-0.23726 -0.51812,-0.25046 -0.49192,-0.60426 -0.2251,-0.48358 -0.17188,-0.80094 -0.24275,-1.32901 -0.0458,-0.18419 -0.0516,-0.51651 -0.18686,-0.6631 -0.0287,-0.0311 -0.1008,-0.004 -0.11975,-0.0417 -0.0542,-0.10821 0.062,-0.25443 -0.0125,-0.36289 -0.0335,-0.45324 -0.0499,-0.8907 -0.30153,-1.28812 -0.0663,-0.15138 -0.18675,-0.27569 -0.2487,-0.42891 -0.15938,-0.39421 -0.14093,-0.87627 -0.37991,-1.24857 -0.1223,-0.32857 -0.14872,-0.6466 -0.23957,-0.98293 -0.0477,-0.17645 -0.15839,-0.33437 -0.18982,-0.51442 -0.0195,-0.11145 -1.2e-4,-0.22628 -1.8e-4,-0.33942 -0.015,-0.67896 -0.0192,-1.35727 -0.0127,-2.0365 -0.0142,-0.5787 0.0417,-1.16091 -0.0309,-1.73663 -0.0603,-0.57307 -0.21128,-1.1332 -0.40175,-1.67608 -0.0264,-0.76437 -0.0316,-1.53058 -0.008,-2.29498 0.004,-0.96083 0.0859,-1.9186 0.21739,-2.87028 0.18314,-1.44616 0.16437,-2.89407 0.29997,-4.34486 0.13049,-1.34927 0.25444,-2.68981 0.16191,-4.04761 0.0132,-1.31275 0.0369,-2.6299 0.20948,-3.93314 0.16548,-1.06674 0.24871,-2.13591 0.38254,-3.20669 0.17391,-0.9939 0.23319,-1.99215 0.40769,-2.98605 z" />
    <g
       id="g206"
       transform="matrix(0.89637622,0,0,0.88090441,55.802745,34.955399)"
       style="fill:#ffffff;fill-opacity:1">
      <path
         style="fill:#ffffff;fill-opacity:1;stroke-width:4.152"
         id="path178"
         d="m 484.98676,160.21975 c 5.28444,2.46445 11.12389,2.90809 16.8657,3.06343 12.75953,-0.32803 25.15853,-3.75498 37.36199,-7.2061 11.29984,-3.20752 22.37509,-7.16025 33.43266,-11.11183 4.29445,-1.63586 8.55688,-2.92441 13.14629,-2.18219 7.18405,1.2254 20.25065,9.84223 -6.35373,-5.31264 1.77698,1.1796 2.011,1.58239 0.91176,3.369 -3.46254,3.90758 -7.29346,7.48108 -11.05104,11.10257 -5.1214,5.09146 -10.04198,10.37603 -15.05519,15.57097 -4.69521,4.87884 -9.20264,9.934 -13.86613,14.84129 -4.92606,4.92151 -9.83718,9.84282 -14.63139,14.89395 -3.2723,3.00001 -6.21194,6.31278 -8.99603,9.76199 -1.1279,1.37927 -1.85624,2.9223 -2.03231,4.69028 0.44673,1.74195 2.17835,2.47663 3.58199,3.36211 0.35471,0.22779 0.69932,0.47211 1.06411,0.68335 48.54791,27.96035 1.80365,1.01648 2.69838,1.53704 5.96669,3.47146 11.94108,6.9299 17.93606,10.35225 1.04633,0.59732 2.14461,1.09934 3.20111,1.67847 -27.70866,-16.37024 -13.34323,-8.01309 -7.66059,-3.51591 2.92914,2.31809 2.72899,2.27653 5.50178,5.00946 5.16959,5.4643 9.58798,11.60373 13.28379,18.14458 4.05658,7.04479 6.47515,14.79422 8.47878,22.62292 2.04377,8.14992 1.98792,16.54802 1.1553,24.84868 -0.89227,9.02807 -3.38122,17.79456 -5.91347,26.47499 -2.00097,7.13822 -4.57015,14.07782 -7.4094,20.91791 -2.24078,5.01662 -2.76014,6.88206 -8.04304,8.7481 -6.14724,1.11349 -12.52875,0.12572 -18.22178,-2.41983 -1.42748,-0.63828 -2.76995,-1.45181 -4.15492,-2.17771 3.81766,2.09604 7.43327,4.61186 11.45299,6.28812 1.8031,0.75191 -3.1751,-2.27875 -4.71654,-3.47896 -1.62643,-1.2664 -3.20501,-2.59343 -4.78401,-3.9185 -5.90781,-4.95772 -11.67667,-10.08746 -17.47759,-15.16879 -12.97452,-11.4455 -26.11699,-22.68622 -39.61195,-33.51286 -5.4771,-4.39709 -10.94114,-8.81254 -16.30625,-13.3462 -0.89174,-1.48012 -1.92959,-0.28792 -1.36645,-0.0538 0.33612,0.13975 0.67151,-0.28125 1.00721,-0.422 0.72591,-0.30436 1.45175,-0.60888 2.17763,-0.91333 15.94219,-7.03901 32.12124,-13.50372 48.48566,-19.48915 16.94148,-5.93315 34.00745,-11.51537 51.23477,-16.56024 14.51257,-4.08247 29.12974,-7.79494 43.79752,-11.27641 10.32721,-2.52852 20.78957,-4.46853 31.28177,-6.1673 5.5913,-0.88314 11.23587,-1.3061 16.89158,-1.3967 2.31009,0.0594 4.66117,-0.31354 6.8093,0.65051 1.12323,0.42827 2.30733,0.7225 3.51313,0.74549 0.57697,0.0193 1.15384,0.0701 1.73035,0.0298 1.31685,-4.27449 -7.33477,-5.12607 -11.11256,-7.52058 0.59524,0.82268 0.38362,0.75367 -0.0645,1.45048 0,0 0.43946,0.29473 0.43946,0.29473 v 0 c 1.36378,0.17953 2.57989,0.45892 3.80227,1.1622 -15.35279,-10.59912 -7.8143,-4.0721 -10.47888,-7.50047 -0.52098,-0.0535 -1.04663,-0.0595 -1.56379,-0.15062 -1.09666,-0.25698 -2.17151,-0.56257 -3.24863,-0.89393 -2.22937,-0.32455 -4.49739,0.0203 -6.73582,0.0665 -5.44484,0.39142 -10.86816,1.04441 -16.22667,2.10396 -10.21614,1.93516 -20.38248,4.17001 -30.42564,6.86893 -14.40409,3.73417 -28.74557,7.72302 -43.03625,11.86855 -16.89662,5.26926 -33.60619,11.1299 -50.17204,17.35985 -16.77219,6.34868 -33.50503,12.86955 -50.68684,18.04601 -0.58836,0.19133 -5.79595,1.28466 -4.68801,3.21503 0.23258,0.40524 0.97408,0.36803 1.10794,0.85863 6.06416,4.68634 12.09962,9.40974 18.1225,14.14897 13.73041,10.72328 27.10009,21.88227 39.99838,33.60002 6.92018,6.19471 13.63282,12.69032 20.82231,18.57699 8.81965,7.22141 11.2193,7.50042 25.10075,15.76847 1.49192,0.72348 2.94145,1.54185 4.47576,2.17045 6.15732,2.52263 13.0465,3.34846 19.57105,2.0384 1.78226,-0.68907 2.82409,-0.91185 4.29554,-2.13805 2.3355,-1.94623 3.07789,-5.24619 4.23455,-7.89364 2.49395,-7.06064 5.06729,-14.0966 6.8921,-21.3724 2.35853,-8.82517 5.10275,-17.62967 5.92589,-26.76741 0.83479,-8.39336 1.25621,-16.87659 -0.6119,-25.17749 -2.07802,-7.88011 -4.39195,-15.7418 -8.26792,-22.95815 -3.73518,-6.77198 -8.33661,-13.03908 -13.58014,-18.7274 -8.76047,-9.25677 -18.78431,-14.38473 -30.22613,-20.64532 -1.05727,-0.56275 -4.19918,-2.30534 -3.16362,-1.70357 4.93531,2.86794 19.77813,11.40803 14.83085,8.56079 -59.60139,-34.30148 10.29943,5.84562 -3.68968,-2.08075 -1.23791,-0.88515 -2.64665,-1.55343 -3.8449,-2.39689 -1.08721,-0.17344 0.57842,-3.13729 0.88464,-3.55792 2.66325,-3.472 5.5108,-6.76862 8.61712,-9.85893 4.57511,-5.19352 9.32854,-10.21735 14.21788,-15.11705 4.60544,-4.92555 9.07493,-9.9755 13.4903,-15.07181 4.8157,-5.28286 9.39973,-10.7797 14.41556,-15.87875 3.85353,-3.73647 7.86479,-7.30662 11.7148,-11.04015 1.45798,-1.9987 2.09738,-3.66408 -0.1012,-5.44539 -7.78647,-4.50647 -14.71368,-10.16714 -23.66349,-11.44072 -4.65893,-0.3485 -8.88445,1.17944 -13.14647,2.98063 -10.65554,4.43731 -21.57175,8.28142 -32.66742,11.46236 -12.38706,3.38211 -24.99378,6.55922 -37.9357,6.3284 -5.14163,-0.21601 -10.31281,-0.6316 -15.18916,-2.40501 z" />
      <path
         style="fill:#ffffff;fill-opacity:1;stroke-width:4.152"
         id="path197"
         d="m 807.56454,137.47869 c 1.64012,-0.33426 3.35236,-0.60701 5.03092,-0.53413 2.70672,0.0323 5.36932,0.27379 8.02351,0.80645 3.17314,0.71567 6.26725,1.73387 9.27993,2.95248 6.23819,2.3314 -5.22451,-2.89974 -12.91698,-8.04786 -0.55606,-0.37214 1.37722,0.10148 1.9611,0.42827 1.12967,0.63226 0.84269,1.28294 0.77128,2.22914 -2.2007,0.9291 -0.90113,0.57589 -3.97965,0.6965 0,0 0.43544,0.30063 0.43544,0.30063 v 0 c 3.59853,-0.13975 1.72414,-0.24868 5.61556,0.4386 1.04292,0.34383 2.09563,0.65927 3.12876,1.03149 0.95935,0.34564 1.85211,0.89437 2.84627,1.12124 0.91134,0.20797 3.54222,0.73445 2.79932,0.1671 -3.64327,-2.78236 -10.37109,-7.2481 -15.90207,-9.62437 -2.97533,-1.04139 -6.02524,-1.88691 -9.11907,-2.49377 -2.6489,-0.41717 -5.36104,-0.76496 -8.02556,-0.2612 -1.35353,0.43748 -2.52957,1.1978 -3.83487,1.75242 z" />
      <path
         style="fill:#ffffff;fill-opacity:1;stroke-width:4.152"
         id="path198"
         d="m 725.53865,158.71157 c 5.09526,5.29233 11.85519,9.01559 18.77297,11.42568 3.12513,1.18854 6.45692,0.5353 9.67603,0.14966 9.0478,-1.55436 18.01411,-3.54826 26.9498,-5.64411 13.4048,-3.28944 26.7098,-6.96121 40.05148,-10.49421 11.51435,-3.15565 23.09989,-6.05078 34.89693,-7.9214 6.59192,-0.97563 13.25089,-1.70822 19.92246,-1.60068 2.81045,0.11076 5.60206,0.48064 8.40895,0.6392 1.34756,0.10288 2.69957,0.12199 4.04927,0.18741 0.28071,-0.0256 0.6202,0.097 0.88642,0.0223 0.73545,-4.00763 0.45002,-0.15514 -10.0396,-6.5455 -0.1148,-0.0699 0.0618,0.26227 0.10777,0.38861 0.3009,0.8278 0.43891,0.44975 -0.0152,1.00392 -0.24742,0.0531 -0.49485,0.10627 -0.74228,0.1594 0,0 0.4396,0.29451 0.4396,0.29451 v 0 c 0.24826,-0.0544 0.49651,-0.10877 0.74477,-0.16315 1.33598,-0.0211 0.36383,-0.0752 1.99979,0.28619 0.2508,0.0554 0.96414,0.28704 0.75909,0.13236 -18.02519,-13.5977 -8.87082,-3.16997 -9.53037,-6.83331 -0.24144,-0.0495 -0.50146,0.0305 -0.74819,0.0204 -1.23142,0.0443 -2.46248,0.009 -3.69396,-0.0153 -2.58663,-0.10873 -5.17821,-0.17785 -7.76588,-0.0601 -6.22982,0.38478 -12.34457,1.73957 -18.47016,2.86769 -4.20451,0.91141 -5.24292,1.08496 -9.47979,2.22169 -7.95503,2.13431 -15.76799,4.76677 -23.70561,6.96213 -13.379,3.69388 -26.79284,7.31249 -40.37036,10.21031 -9.44324,1.88292 -18.93055,3.75692 -28.56181,4.3363 -3.33087,0.1008 -6.7572,0.26885 -9.88599,-1.08345 -5.61945,-2.74977 -0.41974,-0.22575 13.49422,7.91685 0.2794,0.16351 -0.58604,-0.27962 -0.85748,-0.45603 -0.66368,-0.43133 -1.2604,-1.00804 -1.84945,-1.5315 z" />
      <path
         style="fill:#ffffff;fill-opacity:1;stroke-width:4.152"
         id="path200"
         d="m 783.92641,158.44041 c 0.43981,1.01101 0.89582,2.00247 1.51024,2.92227 0.47917,0.7369 0.98299,1.42527 1.33032,2.23536 0.49907,0.89926 0.46139,1.77585 0.38863,2.76658 -0.37842,1.94044 -1.22665,3.73519 -1.86327,5.59602 -1.38881,3.85152 -2.64622,7.75304 -3.87156,11.65999 -1.68737,5.17452 -3.75273,10.20874 -5.9805,15.17053 -2.77373,6.30298 -6.26849,12.23593 -9.65175,18.22207 -5.21783,8.59146 -10.64224,17.0562 -16.09657,25.49969 -6.857,10.1763 -14.2443,19.97346 -21.7062,29.70953 -3.33094,4.10793 -6.69549,8.19029 -9.96625,12.34673 -0.88025,1.1186 -1.78671,2.21852 -2.61141,3.37869 -1.11251,1.56505 -2.37453,3.76161 -3.37402,5.44919 1.61416,6.75213 0.44441,0.0855 0.3782,4.58324 -0.0106,0.72188 0.64192,1.88426 -0.0229,2.16576 -0.30271,0.12818 -0.65316,-0.0751 -0.97973,-0.11269 0,0 0.43181,0.30581 0.43181,0.30581 v 0 c 1.94382,0.20749 3.84595,0.89154 5.81078,0.92625 2.27741,0.0402 4.50365,-1.13517 6.82432,-0.35017 2.2908,-1.52306 3.55226,-2.2407 5.63619,-4.18334 1.0641,-0.99195 2.02762,-2.0873 3.00699,-3.16299 3.58042,-3.93255 6.8922,-8.09885 10.15153,-12.29761 7.6027,-9.67556 14.86227,-19.59814 21.90704,-29.6875 3.32321,-4.55638 6.72618,-9.07423 9.89585,-13.74031 0.87479,-1.28777 1.68309,-2.61969 2.54819,-3.91399 4.39823,-6.58031 0.94038,-1.08318 4.76801,-7.31333 3.64183,-5.90221 7.03757,-11.95943 9.83438,-18.31486 2.26353,-5.03108 4.29257,-10.15765 5.93168,-15.43023 1.12672,-3.96249 2.17763,-7.93914 3.50743,-11.84088 0.57737,-2.05212 1.28287,-4.0706 1.44545,-6.20971 0.0924,-1.34136 -0.0291,-2.65397 -0.72212,-3.84162 -0.30748,-0.45566 -0.52434,-0.95259 -0.82606,-1.41116 -0.49924,-0.75876 -0.18051,-0.19961 -0.78223,-0.86576 -0.15815,-0.17508 -0.28978,-0.3724 -0.43467,-0.5586 -1.02459,-1.06549 -2.04295,-2.15284 -2.89501,-3.36184 z" />
      <path
         style="fill:#ffffff;fill-opacity:1;stroke-width:4.152"
         id="path201"
         d="m 752.08755,247.51857 c 1.08102,1.11163 2.22895,2.14997 3.39443,3.17127 0.64743,0.63028 1.40534,1.2519 1.80186,2.07962 0.64284,0.99205 0.97976,2.16604 1.26503,3.30494 0.83594,3.00763 1.06613,6.11405 1.2078,9.21726 0.2441,7.46571 -0.76579,14.88797 -1.74689,22.26911 -1.34807,11.71643 -3.37424,23.33452 -5.35663,34.95526 -1.81744,9.94664 -4.19795,19.77622 -5.8138,29.75851 -0.67357,3.18317 -1.01657,6.42408 -0.91444,9.67781 0.0434,1.38244 0.0768,2.61374 0.71519,3.87003 0.25634,0.50441 0.67295,0.90977 1.00942,1.36466 0.15103,0.19156 0.21872,0.50704 0.45309,0.57467 0.26494,0.0764 0.53285,-0.14221 0.79927,-0.21331 2.28762,1.3459 4.47761,2.87356 6.86286,4.03771 0.58089,0.28351 -0.98568,-0.85005 -1.38039,-1.36193 -0.38812,-0.50331 -0.93133,-1.9756 -1.16455,-2.55861 -0.54121,-1.75625 -0.39045,-0.90114 -0.51208,-2.55407 0,0 -0.47037,-0.24236 -0.47037,-0.24236 v 0 c 0.11303,1.51472 0.23053,0.80621 -0.29214,2.13466 -0.1269,0.22863 -0.68228,1.33431 -0.98079,1.4691 -0.37344,0.16862 -1.53567,-0.14201 -1.22307,0.12288 5.09429,4.31676 4.88047,5.29002 8.93835,4.62131 0.45959,-0.0655 0.96187,0.008 1.37878,-0.19659 0.93186,-0.45648 1.30367,-1.79128 1.59535,-2.60806 1.03336,-2.89369 1.63564,-5.91418 2.16478,-8.93337 0.98181,-4.46802 1.81134,-8.94814 2.68351,-13.43774 1.05986,-5.45567 2.24659,-10.88877 3.05081,-16.39211 2.05454,-11.62281 3.44054,-23.34992 5.37876,-34.99295 1.15928,-7.42111 2.2139,-14.87571 2.11003,-22.40824 -0.15312,-3.36478 -0.48295,-6.77442 -1.71647,-9.93973 -0.58461,-1.50429 -1.43895,-2.82371 -2.18197,-4.23701 -0.70072,-0.69542 0.0806,0.14687 -0.54376,-0.78573 -0.36561,-0.54615 -0.89058,-0.93375 -1.35722,-1.37686 -0.18321,-0.17397 -0.34218,-0.37179 -0.51328,-0.55769 -1.26217,-1.02062 -2.60158,-1.95942 -3.68888,-3.17511 z" />
      <path
         style="fill:#ffffff;fill-opacity:1;stroke-width:4.152"
         id="path202"
         d="m 834.6598,182.12184 c -1.5207,-1.10374 3.37887,1.84967 1.76417,0.92317 -46.36021,-26.60109 34.06725,19.68747 -12.83348,-7.35216 0.9708,0.54749 1.5989,1.43777 2.21257,2.33672 0.56638,0.9897 0.754,2.15897 0.8072,3.28466 -0.2136,2.35543 -1.11041,4.62403 -1.85472,6.85403 -2.47678,7.46189 -5.84569,14.61032 -9.81963,21.38896 -1.16887,1.99384 -2.42768,3.93358 -3.64153,5.90036 -5.0404,8.02284 -10.65439,15.65535 -16.14819,23.36616 -1.28138,1.79847 -2.65369,3.53879 -3.8038,5.4239 -1.07118,1.75574 -1.89702,3.64986 -2.84553,5.47478 -1.44658,3.20659 -0.85545,6.97458 -2.06837,10.23812 -0.74731,2.01074 -1.94684,2.69388 -3.45487,3.88685 0,0 0.45004,0.27828 0.45004,0.27828 v 0 c 1.47822,-1.17066 2.88894,-2.39194 4.64608,-3.17368 3.80655,-1.6935 8.0701,-2.25002 11.6459,-4.53793 1.74364,-1.36263 3.60812,-2.58338 5.23092,-4.0879 1.65846,-1.53757 3.11159,-3.28559 4.57871,-5.00668 6.18393,-7.25441 11.34296,-15.30928 16.60936,-23.2291 5.57185,-8.58186 11.25658,-17.19682 15.29235,-26.63668 0.88428,-2.50542 1.75744,-5.03237 1.52071,-7.73146 -0.15653,-1.53137 -0.80782,-2.96985 -1.39254,-4.37976 -0.69066,-1.05233 -1.50946,-2.06101 -2.36278,-2.97776 -5.00686,-2.92197 -10.16347,-5.60124 -15.02056,-8.76592 -4.49261,-2.9272 18.6758,10.54025 13.9257,8.05256 -5.08241,-2.66172 -9.93986,-5.7326 -14.92343,-8.57508 -0.47728,-0.27223 -1.02443,-0.41975 -1.53714,-0.60637 z" />
      <path
         style="fill:#ffffff;fill-opacity:1;stroke-width:4.152"
         id="path203"
         d="m 830.17155,225.54583 c 1.48372,0.43223 2.93452,0.95188 4.45712,1.2738 1.4704,0.20746 2.9603,0.26249 4.44369,0.3001 1.67643,-0.007 3.361,0.1103 5.02683,-0.0945 1.99302,-0.13285 3.91349,-0.66441 5.85273,-1.09876 2.5284,-0.57698 5.03024,-1.24848 7.50631,-2.02188 2.83285,-0.96227 5.61336,-2.06018 8.37602,-3.20618 2.75069,-0.9716 5.36389,-2.2602 8.04491,-3.39849 1.88076,-0.9305 3.81819,-1.76745 5.66151,-2.77168 1.37469,-0.60355 2.6696,-1.36101 4.00953,-2.03097 1.48605,-0.74624 2.91174,-1.6156 4.4029,-2.35121 1.49129,-0.94398 3.05242,-1.73339 4.61185,-2.54974 1.10977,-0.73324 2.33708,-1.28913 3.42886,-2.04501 0.49773,-0.3558 1.08916,-0.60769 1.70243,-0.66698 0.31526,-0.0204 0.20308,0.13223 0.0581,0.32332 -14.68989,-10.87436 -11.92826,-14.6181 -18.07752,-7.83552 -2.57179,3.12721 -5.18536,6.21887 -7.71278,9.38375 -4.17831,5.21761 -7.9455,10.74283 -11.95408,16.08697 -4.23828,5.78152 -8.89703,11.21779 -13.53403,16.67565 -4.39301,5.30277 -8.66547,10.69946 -12.85938,16.16028 -5.20489,6.61307 -10.85558,12.86359 -16.54891,19.05643 -5.15409,5.69755 -10.49544,11.22164 -15.90561,16.67535 -5.21215,4.8509 -10.53091,9.64042 -16.2417,13.90587 -1.42502,1.06435 -2.89976,2.06045 -4.34965,3.09068 -1.4872,1.02054 -2.94998,2.07761 -4.46161,3.06161 -1.48696,0.96794 -7.14322,4.33481 -8.69764,5.40915 -5.46179,3.77492 -1.44295,1.34925 -6.31997,5.22537 -0.98007,0.77893 -2.05189,1.43486 -3.07784,2.15229 -5.52036,1.54548 -2.62976,1.05294 -8.68974,1.36809 0,0 0.43575,0.30016 0.43575,0.30016 v 0 c 6.56029,-0.34424 3.11267,-0.24054 10.34422,-0.262 3.79642,0.15093 9.85591,0.49085 13.64356,0.23903 2.11429,-0.14057 4.2281,-0.4042 6.30004,-0.84811 5.85605,-1.25467 11.16956,-4.11378 16.59951,-6.50107 8.33381,-4.52627 16.9305,-8.82244 23.86552,-15.43162 5.39797,-5.45283 10.376,-11.29003 15.44044,-17.04973 5.6348,-6.32052 11.34372,-12.57523 16.81316,-19.04107 4.3095,-5.34497 8.32199,-10.90771 11.94108,-16.74778 3.91938,-5.92549 7.83955,-11.85789 12.03297,-17.59411 3.81602,-5.45596 7.66478,-10.89337 11.68463,-16.20149 2.36557,-3.24992 4.95157,-6.31942 7.50441,-9.42267 5.28335,-6.76852 3.89414,-1.26958 -13.30041,-12.72747 -0.13341,0.16281 -0.24574,0.34495 -0.41978,0.46705 -0.4956,0.40146 -1.0685,0.70301 -1.55534,1.11764 -1.07269,0.6727 -2.12916,1.37381 -3.26067,1.94612 -1.60779,0.76908 -3.12383,1.71098 -4.74189,2.46148 -1.53451,0.76879 -3.13991,1.3781 -4.64126,2.21336 -1.34908,0.69563 -2.73863,1.31194 -4.05452,2.06967 -1.73727,0.99242 -3.48682,1.96862 -5.27674,2.86247 -2.60982,1.21637 -5.26496,2.34093 -7.95424,3.36998 -2.87457,1.02893 -5.7374,2.07304 -8.69596,2.83829 -2.52848,0.65642 -5.03337,1.40544 -7.61687,1.82956 -1.90454,0.39291 -3.80559,0.79943 -5.7512,0.93336 -1.61432,0.0605 -3.22878,0.0399 -4.84387,0.05 -1.2796,0.003 -2.56444,0.0228 -3.83254,-0.18031 -1.16952,-0.18564 -2.31514,-0.48659 -3.49969,-0.55222 z" />
      <path
         style="fill:#ffffff;fill-opacity:1;stroke-width:4.152"
         id="path204"
         d="m 826.23396,253.71734 c 0.21476,-0.0358 0.42683,-0.0966 0.64428,-0.10747 0.58779,-0.0294 1.17597,0.0778 1.76436,0.0653 1.00185,-0.0213 2.01293,-0.14165 3.01348,-0.20437 1.62871,-0.0852 3.26202,-0.12423 4.893,-0.10575 1.39791,0.0246 2.79595,0.0404 4.19334,0.0864 0.72757,0.33948 1.55369,0.32103 2.31139,0.52015 0.0409,0.0108 0.99899,0.39934 1.05744,0.42296 0.27158,0.33995 0.89222,0.1411 1.20212,0.36943 0.0875,0.0645 0.0788,0.20787 0.15122,0.28899 0.10367,0.11616 0.27358,0.14872 0.40996,0.22385 -0.0263,-0.0529 0.18036,0.0979 0.15049,0.0538 -0.0599,-0.0885 -0.14974,-0.15583 -0.24061,-0.21222 -14.90372,-9.24897 -19.81349,-11.41525 -13.07083,-8.33471 1.0375,0.82889 2.1799,1.57937 3.02304,2.62501 0.26302,0.32619 1.01493,2.02967 1.24852,2.44895 -0.0701,0.18254 -0.14027,0.36507 -0.21041,0.54761 0,0 0.46153,0.2588 0.46153,0.2588 v 0 c 0.0702,-0.18258 0.14032,-0.36516 0.21048,-0.54775 0.38847,-0.0533 2.02129,-0.43809 2.36988,-0.40662 1.3048,0.11777 2.40561,0.86438 3.71252,0.87899 0.52842,0.0808 2.02387,0.54809 1.58526,0.24251 -5.07922,-3.53872 -10.66084,-6.74185 -15.92497,-10.18937 -0.0413,-0.0233 -0.61037,-0.3451 -0.62085,-0.3478 -0.12303,-0.0317 -0.25538,0.0215 -0.3811,0.003 -0.38124,-0.0554 -0.70939,-0.34005 -1.10446,-0.3508 -1.13859,-0.24248 -2.31976,-0.45606 -3.48521,-0.41156 -1.31558,0.0467 -2.63226,0.0567 -3.94726,0.122 -1.57906,0.0787 -3.15568,0.15266 -4.72762,0.33434 -1.83848,0.16645 -3.68376,0.0968 -5.51192,0.36038 z" />
      <path
         style="fill:#ffffff;fill-opacity:1;stroke-width:4.152"
         id="path205"
         d="m 779.6312,278.5729 c 4.12825,-0.55718 8.30504,-0.67764 12.46567,-0.63441 5.6842,0.0246 11.23613,1.25095 16.74432,2.52219 6.41201,1.40184 12.48953,3.9053 18.52377,6.42605 7.44117,2.95589 14.62389,6.48515 21.76603,10.09023 7.84635,4.06134 15.18701,9.0137 22.33717,14.18175 7.608,5.56655 14.87749,11.56601 22.18635,17.5136 5.5751,4.71154 11.62562,8.96497 18.33695,11.91495 4.82684,2.12164 8.88377,3.24799 13.91658,4.83807 10.45352,1.38316 7.31072,1.08186 17.97727,2.02268 14.51952,-0.85164 15.98118,2.39423 4.00758,-2.64525 -3.95058,-1.66273 -6.46702,-4.62807 -9.84909,-7.2422 -9.79159,-5.5971 -19.3529,-11.62568 -27.87846,-19.0606 -7.22447,-6.04747 -14.48959,-12.04581 -22.00007,-17.73724 -7.1723,-5.29868 -14.56739,-10.39373 -22.59011,-14.33058 -7.20367,-3.58657 -14.47144,-7.03645 -21.90537,-10.12414 -6.15617,-2.60418 -12.40452,-5.09053 -18.97056,-6.46111 -5.76098,-1.24089 -11.57083,-2.41119 -17.49408,-2.37933 -4.22616,-0.0951 -8.45057,0.10045 -12.66056,0.48719 z"
         sodipodi:nodetypes="cccccccscssccccccccc" />
      <ellipse
         style="fill:#ffffff;fill-opacity:1;stroke-width:4.152"
         id="path206"
         cx="686.64276"
         cy="230.61409"
         rx="14.986857"
         ry="14.069295" />
    </g>
  </g>
</svg>
